<?xml version="1.0" encoding="utf-8"?>
<!-- Generator: Adobe Illustrator 19.2.0, SVG Export Plug-In . SVG Version: 6.00 Build 0)  -->
<svg version="1.1" xmlns="http://www.w3.org/2000/svg" xmlns:xlink="http://www.w3.org/1999/xlink" x="0px" y="0px"
	 viewBox="0 0 1024 1314" style="enable-background:new 0 0 1024 1314;" xml:space="preserve">
<style type="text/css">
	.st0{fill-rule:evenodd;clip-rule:evenodd;fill:#CECECE;}
	.st1{fill:#CECECE;}
</style>
<g id="Camada_2">
</g>
<g id="Layer_1">
	<g>
		<path class="st0" d="M820.6,618.5c-0.2,1.4-0.4,2.4-0.5,3.5c-0.4,0.1-0.8,0.3-1.2,0.2c-12.7-2-25.6-3.2-38.1-6.2
			c-17.4-4.3-28.5-16.1-32.6-33.5c-4.1-17.5,0.8-32.9,14.2-44.9c11.8-10.5,25.8-13.8,41.2-10.2c1.1,0.3,2.2,0.5,3.6,0.8
			c1-3.3,1.8-6.5,2.9-9.6c9.1-26.2,34.7-42.7,62.7-40.4c26.9,2.2,49.3,22.7,53.9,49.6c0.5,2.7,1.3,4.1,4.2,4.7
			c24.2,4.6,42.6,28.2,41.4,52.7c-1.4,28.9-22.8,50.5-51.5,51.3c-7.2,0.2-14.5-1.4-21.8-2.3c-3.7-0.5-7.5-1.1-11.2-1.6
			c-3.4-0.5-3.4-0.6-2.1-4.4c1.3,0.2,2.8,0.4,4.2,0.6c10.2,1.3,20.3,3.5,30.5,3.7c24.3,0.3,44.3-18.2,47.6-42.7
			c3.1-23.3-12.1-46.2-34.9-52.6c-0.8-0.2-1.6-0.7-2.4-0.7c-5.9,0.2-7.2-3-8.2-8.4c-4.6-26.1-26.4-44.6-53.2-45.9
			c-25.4-1.3-49.4,16.1-56.6,41.1c-0.9,3.3-1.4,6.7-2.2,10.5c-1.1-0.3-2.2-0.5-3.2-0.9c-22.6-8.3-47.4,3.7-54.7,26.3
			c-7.3,22.8,5.7,47.4,28.9,53.2c11.3,2.8,23.1,3.8,34.7,5.6C817.8,618.1,819.1,618.2,820.6,618.5z"/>
		<path class="st0" d="M886.2,583.7c-0.2,1.6-0.4,2.6-0.5,3.7c-2.8,19-5.7,38.1-8.5,57.2c-0.8,5.1-0.7,5.1,4.5,5.8
			c3.4,0.5,6.9,0.8,10.2,1.6c1.3,0.3,3.2,1.5,3.4,2.5c0.2,1.3-0.7,3.3-1.8,4.1c-15.3,11.8-30.7,23.6-46.1,35.3
			c-3.6,2.8-6.8,2.3-9.4-1.4c-11.2-15.4-22.4-30.8-33.4-46.3c-1-1.4-1.7-4.2-1-5.2c0.7-1.1,3.4-1.4,5.2-1.3c3.7,0.2,7.5,1,11.2,1.6
			c2,0.3,3.3-0.3,3.6-2.4c3.1-20.8,6.2-41.6,9.4-63c-2.5-0.4-4.9-0.7-7.2-1.1c-2-0.3-4-0.4-5.9-1c-0.9-0.3-1.5-1.6-2.2-2.4
			c1-0.6,1.9-1.3,2.9-1.7c0.5-0.2,1.2,0.1,1.8,0.2c25.2,3.7,50.3,7.5,75.5,11.2c0.6,0.1,1.4,0,1.8,0.3c0.9,0.8,1.6,1.8,2.4,2.7
			c-1,0.5-2,1.6-3,1.5C894.9,585.1,890.8,584.4,886.2,583.7z M807.8,643.5c1,1.5,1.4,2.3,1.9,3.1c10.2,14.2,20.4,28.3,30.6,42.5
			c2.3,3.2,2.6,3.2,5.7,0.9c14.1-10.7,28.1-21.4,42.2-32.1c0.6-0.5,1.1-1.1,2-2.1c-3.7-0.5-6.8-1-9.9-1.5c-6.9-1-8.3-3-7.3-10
			c2.9-19.2,5.7-38.5,8.6-57.7c0.5-3.5-1.5-3.7-3.9-4.1c-2.6-0.5-3.4,0.4-3.8,2.9c-2.2,15.5-4.6,31.1-6.9,46.6
			c-0.1,0.9-0.1,2-0.6,2.7c-0.4,0.7-1.4,1.4-2.1,1.3c-0.7-0.1-1.7-1-1.9-1.7c-0.3-0.9,0.1-2.1,0.2-3.1c2.3-15.3,4.5-30.6,6.9-45.9
			c0.5-3,0-4.2-3.3-4.6c-8.4-1-16.8-2.4-25.2-3.7c-4.3-0.6-4.7-0.4-5.3,3.9c-2.9,19.2-5.7,38.5-8.6,57.7c-0.9,5.7-3,7.3-8.8,6.4
			C815.3,644.6,812,644.1,807.8,643.5z"/>
	</g>
	<g>
		<path class="st0" d="M142,1145.6c0.4,1.4,0.7,2.4,1,3.4c-0.3,0.2-0.6,0.6-1,0.7c-12.4,3.4-24.7,7.6-37.3,9.9
			c-17.6,3.2-32.6-3.1-43.4-17.3c-10.9-14.3-12.7-30.3-5.4-46.8c6.5-14.4,17.9-23.1,33.5-26.2c1.1-0.2,2.2-0.5,3.6-0.7
			c-0.4-3.4-1-6.6-1.3-9.9c-2.5-27.6,14.2-53.2,40.7-62.5c25.5-9,54.3,0.6,69.5,23.2c1.6,2.3,2.8,3.2,5.8,2.5
			c23.9-5.7,50.4,8.3,59.4,31.2c10.6,27-0.1,55.4-26,67.8c-6.5,3.1-13.9,4.6-20.8,6.8c-3.6,1.1-7.2,2.1-10.9,3.1
			c-3.3,0.9-3.4,0.8-3.8-3.1c1.3-0.4,2.7-0.7,4.1-1.1c9.8-3,20-5.1,29.3-9.1c22.3-9.7,33-34.7,26-58.5
			c-6.7-22.6-29.9-37.2-53.4-33.7c-0.8,0.1-1.8,0-2.5,0.4c-5.3,2.6-7.9,0.2-10.9-4.3c-14.9-21.9-42.3-29.9-67.3-20.2
			c-23.7,9.2-38.5,34.9-34.8,60.7c0.5,3.4,1.5,6.7,2.3,10.4c-1.1,0.2-2.2,0.4-3.3,0.5c-24,1.7-41.8,22.8-39.1,46.4
			c2.7,23.7,24.6,40.9,48.2,36.7c11.5-2,22.6-6,33.9-9.1C139.3,1146.4,140.6,1146,142,1145.6z"/>
		<path class="st0" d="M187.7,1087c0.4,1.6,0.7,2.6,1,3.6c5.2,18.5,10.4,37.1,15.6,55.6c1.4,4.9,1.4,4.9,6.5,3.5
			c3.3-0.9,6.6-2,10-2.7c1.3-0.3,3.6,0,4.2,0.9c0.7,1.1,0.7,3.3,0,4.5c-9.1,17.1-18.4,34.1-27.7,51.1c-2.2,4-5.2,4.8-9.2,2.6
			c-16.5-9.5-33-18.9-49.5-28.6c-1.5-0.9-3.3-3.1-3.1-4.4c0.2-1.3,2.5-2.7,4.2-3.3c3.5-1.3,7.2-2.2,10.9-3.1c2-0.5,2.9-1.6,2.3-3.7
			c-5.7-20.2-11.4-40.5-17.2-61.3c-2.5,0.7-4.7,1.3-7,2c-1.9,0.5-3.8,1.3-5.8,1.5c-0.9,0.1-2-0.9-3-1.3c0.6-0.9,1.2-1.9,1.9-2.7
			c0.4-0.4,1.2-0.4,1.8-0.6c24.5-6.9,49-13.8,73.5-20.7c0.6-0.2,1.3-0.6,1.8-0.4c1.1,0.3,2.2,1,3.3,1.5c-0.7,0.9-1.2,2.3-2.1,2.6
			C196.2,1084.8,192.1,1085.8,187.7,1087z M140.5,1173.7c1.5,1,2.2,1.5,3,2c15.1,8.8,30.2,17.5,45.4,26.2c3.4,2,3.7,1.9,5.5-1.5
			c8.5-15.5,16.9-31,25.3-46.6c0.4-0.7,0.5-1.4,1-2.7c-3.6,1-6.6,1.9-9.6,2.7c-6.7,1.9-8.8,0.7-10.7-6.1
			c-5.3-18.7-10.6-37.4-15.8-56.2c-0.9-3.4-2.9-2.7-5.3-2.2c-2.6,0.6-3,1.8-2.3,4.2c4.3,15.1,8.5,30.2,12.8,45.3
			c0.3,0.9,0.7,1.9,0.6,2.7c-0.1,0.8-0.7,1.9-1.3,2.1c-0.7,0.2-1.9-0.2-2.4-0.8c-0.6-0.7-0.8-1.9-1.1-2.9
			c-4.2-14.9-8.5-29.8-12.5-44.7c-0.8-3-1.7-3.9-4.9-2.9c-8.1,2.5-16.3,4.7-24.4,7c-4.2,1.2-4.4,1.5-3.2,5.7
			c5.3,18.7,10.5,37.5,15.8,56.2c1.6,5.6,0.3,7.8-5.4,9.4C147.8,1171.6,144.6,1172.5,140.5,1173.7z"/>
	</g>
	<path class="st0" d="M145.2,351.2c8.2,0,14.7,6.5,14.7,14.7c0,8.2-6.5,14.7-14.8,14.7c-8.2,0-14.7-6.6-14.7-14.8
		C130.4,357.6,136.9,351.2,145.2,351.2z M145.4,355.4c-5.9-0.1-10.7,4.5-10.8,10.3c-0.1,5.8,4.6,10.6,10.4,10.8
		c5.8,0.1,10.7-4.6,10.8-10.3C155.9,360.4,151.1,355.5,145.4,355.4z"/>
	<path class="st0" d="M688,212.6c-7.7-1.8-12.3-9-10.6-16.6c1.7-7.4,9.4-12.2,16.8-10.4c7.4,1.8,12.1,9.5,10.3,16.9
		C702.8,209.9,695.5,214.3,688,212.6z M693.4,189.8c-5.2-1.3-10.6,2-11.8,7.2c-1.2,5,2.1,10.4,7.1,11.7c5,1.3,10.6-2.2,11.8-7.3
		C701.7,196.3,698.4,191,693.4,189.8z"/>
	<path class="st0" d="M663.5,738.6c-1.3-6.8,3.2-13.6,9.9-14.9c6.8-1.3,13.6,3.2,14.9,9.9c1.3,6.8-3.2,13.6-9.9,14.9
		C671.6,749.8,664.8,745.3,663.5,738.6z M668,737.8c0.9,4.3,5.3,7.2,9.6,6.3c4.2-0.9,7.2-5.3,6.3-9.6c-0.9-4.3-5.3-7.1-9.6-6.3
		C669.9,729.1,667.1,733.5,668,737.8z"/>
	<path class="st0" d="M379.2,720.8c-1.2-6.3,3-12.7,9.3-13.9c6.4-1.2,12.7,3,13.9,9.3c1.2,6.4-3,12.7-9.2,13.9
		C386.7,731.3,380.4,727.1,379.2,720.8z M383.4,720c0.9,4.1,4.9,6.7,8.9,5.9c4-0.8,6.7-5,5.9-9c-0.8-4-4.9-6.7-9-5.8
		C385.2,711.9,382.5,716,383.4,720z"/>
	<path class="st0" d="M439.5,537.2c1.5,6.3-2.6,12.8-8.8,14.2c-6.3,1.4-12.8-2.7-14.2-8.9c-1.4-6.4,2.5-12.6,8.9-14.1
		C431.8,527,438,530.8,439.5,537.2z M426.4,532.5c-4,0.9-6.7,5-5.8,9c0.9,3.9,5.1,6.6,9.1,5.8c4-0.9,6.6-5.1,5.7-9.1
		C434.5,534.2,430.5,531.6,426.4,532.5z"/>
	<path class="st0" d="M684,159.9c3,2.8,5.4,4.8,7.5,7.1c0.7,0.8,0.6,2.3,0.8,3.4c-1.3-0.2-2.9,0-3.7-0.7c-2.3-2.1-4.2-4.6-7-8
		c-2.7,3.2-4.4,5.6-6.6,7.7c-0.9,0.8-3.2,1.5-3.9,1c-1.7-1.3-0.3-2.8,0.9-3.9c2.2-2.1,4.5-4.1,7.6-6.9c-2.9-2.5-5.4-4.4-7.6-6.6
		c-0.8-0.8-1.4-2.9-0.9-3.6c1.3-1.9,2.7-0.4,3.8,0.8c2.1,2.2,4.1,4.4,6.8,7.4c2.5-2.8,4.7-5.2,6.9-7.6c1-1.1,2.4-2.3,3.6-0.6
		c0.5,0.7,0,2.8-0.7,3.6C689.3,155.3,686.9,157.3,684,159.9z"/>
	<path class="st0" d="M514,456.4c-2.6,2.9-4.5,5.4-6.8,7.5c-0.8,0.8-3,1.3-3.6,0.8c-1.6-1.3-0.5-2.8,0.7-3.9c2.2-2,4.4-4.1,7.6-7
		c-2.9-2.4-5.3-4.2-7.4-6.4c-0.8-0.9-1.5-3.2-0.9-3.9c1.3-1.6,2.8-0.3,3.9,0.9c2,2.2,3.9,4.5,6.4,7.4c2.7-3,4.6-5.2,6.6-7.3
		c1.2-1.2,2.5-2.7,4.2-1.1c1.7,1.8-0.1,3-1.2,4.1c-2,2-4.1,3.8-6.6,6.1c2.6,2.6,4.8,4.8,6.9,7c1.1,1.1,2.5,2.4,0.9,4
		c-1.6,1.6-2.9,0.1-3.9-1C518.7,461.6,516.7,459.3,514,456.4z"/>
	<path class="st0" d="M453.1,300.1c0,5.5-4.5,10-10.2,10c-5.6,0-10.1-4.5-10-10c0-5.6,4.5-10,10.1-9.9
		C448.7,290.1,453.1,294.5,453.1,300.1z M448.8,300.1c0.1-3.1-2.6-5.8-5.9-5.8c-3.1,0-5.8,2.4-5.9,5.4c-0.2,3.1,2.5,5.9,5.7,6
		C446,305.8,448.8,303.3,448.8,300.1z"/>
	<path class="st0" d="M547,495.7c-6,0-11.9,0-17.9,0c-1.6,0-3.8,0.4-3.9-2c0-2.6,2.3-2.2,4-2.2c11.8,0,23.6,0,35.5,0
		c1.6,0,4.1-0.7,4.1,2c0,3-2.6,2.1-4.3,2.1C558.7,495.7,552.9,495.7,547,495.7z"/>
	<path class="st0" d="M361.1,132.4c-5.9-1.2-11.9-2.4-17.8-3.6c-1.5-0.3-3.5-0.4-3.1-2.7c0.5-2.5,2.5-1.7,4-1.4
		c11.9,2.4,23.8,4.8,35.6,7.3c1.2,0.3,3.1,1.8,3,2.6c-0.3,2.4-2.4,1.7-4,1.4C372.9,134.8,367,133.6,361.1,132.4z"/>
	<g>
		<path class="st0" d="M881.1,199.5c0.4-1.5,0.6-2.5,0.9-3.7c2.9,0.7,5.6,1.3,8.4,2c21.9,5.1,43.6-7.2,51-28.9
			c6.9-20.3-3.7-43.7-23.8-52.6c-2.3-1-4.8-1.9-7.3-2.4c-2.3-0.4-3-1.4-3.1-3.7c-1-19-9.8-33.5-26.6-42.5
			c-28.7-15.5-64.5,0.9-72,32.7c-0.2,1-0.5,2-0.7,3.2c-2.4-1-4.5-1.9-6.7-2.7c-19.1-6.7-39.7,3.2-47.1,22.6
			c-6.8,17.8,2.7,39.2,20.7,46.6c2,0.8,4.1,1.4,6.1,1.9c4.6,1.1,9.2,2.2,14,3.3c-0.3,1.1-0.5,2.1-0.8,3.4c-4.9-1.2-9.9-2.1-14.7-3.5
			c-3.4-1-6.7-2.1-9.8-3.8c-17.1-9.3-25-28.9-19.3-47.6c5.4-17.9,23-30,41.9-28.4c4.4,0.4,8.7,1.9,12.9,2.9
			c1.5-3.6,2.7-7.1,4.3-10.3c10.4-21.2,34.6-33.4,57-28.9c24.8,4.9,42.3,24,44.2,48.4c0.2,2,0.6,2.9,2.8,3.4
			c21.2,5.6,36,27.8,33.2,49.7c-3.1,25-23.3,42.6-48.4,41.6C892.6,202,887,200.5,881.1,199.5z"/>
		<path class="st0" d="M800.9,163.4c-0.5-0.1-0.6-0.2-0.7-0.2c-1.4,0.5-3.1,2.2-4.2-0.1c-1-2.2,1.3-2.6,2.5-3.5
			c1.9-1.4,3.8-2.7,6.4-4.4c1.7,3.1,3.2,5.5,4.4,8.2c0.4,0.8-0.1,2-0.2,3c-1-0.3-2-0.6-3-1c-0.4-0.2-0.6-0.7-1.2-1.5
			c-0.4,1.2-0.7,2.1-0.9,2.9c-2.4,10.2-4.8,20.4-7.2,30.6c-0.2,0.8-0.2,1.6-0.7,2.2c-0.4,0.5-1.3,1.1-1.8,1c-0.6-0.2-1.4-1-1.6-1.7
			c-0.2-0.8,0.2-1.7,0.3-2.5c2.3-10,4.7-20.1,7-30.1C800.5,165.3,800.7,164.4,800.9,163.4z"/>
		<path class="st0" d="M839.7,171.8c-1.1,0.5-1.5,0.9-2,0.9c-1.1,0-2.1-0.3-3.1-0.4c0.4-0.9,0.5-2.2,1.2-2.7
			c2.3-1.7,4.7-3.1,7.6-4.9c1.7,2.9,3.4,5.6,4.9,8.3c0.3,0.5,0,2-0.4,2.2c-0.7,0.3-1.8,0.2-2.5-0.2c-0.6-0.3-0.9-1.1-1.8-2.2
			c-0.3,1.4-0.5,2.3-0.7,3.1c-2.4,10-4.7,20.1-7.1,30.1c-0.2,0.9-0.4,1.9-0.9,2.6c-0.4,0.5-1.4,0.9-2.1,0.8c-0.5-0.1-1.1-1-1.2-1.7
			c-0.1-0.7,0.2-1.5,0.4-2.3c2.4-10.1,4.7-20.2,7.1-30.4C839.2,174.3,839.4,173.3,839.7,171.8z"/>
		<path class="st0" d="M877.9,182.1c-1.8-0.3-4.1-0.1-4.6-0.9c-1.1-2,1.2-2.6,2.5-3.5c1.9-1.3,3.8-2.7,6.3-4.4
			c1.7,3.1,3.2,5.6,4.4,8.2c0.4,0.8-0.1,1.9-0.2,2.9c-1-0.3-2-0.6-3-1.1c-0.4-0.2-0.6-0.8-1.3-1.6c-0.4,1.3-0.7,2.2-0.9,3.2
			c-2.4,10.1-4.8,20.2-7.1,30.4c-0.2,0.8-0.2,1.6-0.6,2.2c-0.4,0.6-1.4,1.2-1.9,1.1c-0.6-0.1-1.2-1.1-1.4-1.8
			c-0.2-0.7,0.2-1.5,0.4-2.3c2.4-10.4,4.9-20.7,7.3-31.1C877.9,182.8,877.9,182.1,877.9,182.1z"/>
		<path class="st0" d="M871.7,196.8c-9.9-2.3-19.5-4.6-29.2-6.9c0.2-1,0.5-2,0.7-3.1c9.6,2.3,19.2,4.5,29.1,6.8
			C872.1,194.5,871.9,195.5,871.7,196.8z"/>
		<path class="st0" d="M803.8,180.8c0.2-1,0.5-2,0.7-3.1c9.7,2.3,19.3,4.5,29.1,6.8c-0.2,1-0.5,1.9-0.7,3.1
			C823.2,185.4,813.6,183.1,803.8,180.8z"/>
	</g>
	<path class="st0" d="M567,456.2c-4.8,0-9.6,0-14.4,0c-1.6,0-3.6,0.1-3.3-2.1c0.1-0.8,2-2,3.2-2c9.8-0.2,19.7-0.2,29.5,0
		c1.1,0,2.1,1.4,3.2,2.2c-1.1,0.7-2.2,1.8-3.3,1.9C576.8,456.3,571.9,456.2,567,456.2z"/>
	<path class="st0" d="M271.9,1213.5c-2.6,2.9-4.5,5.4-6.8,7.5c-0.8,0.8-3,1.3-3.6,0.8c-1.6-1.3-0.5-2.8,0.7-3.9c2.2-2,4.4-4.1,7.6-7
		c-2.9-2.4-5.3-4.2-7.4-6.4c-0.8-0.9-1.5-3.2-0.9-3.9c1.3-1.6,2.8-0.3,3.9,0.9c2,2.2,3.9,4.5,6.4,7.4c2.7-3,4.6-5.2,6.6-7.3
		c1.2-1.2,2.5-2.7,4.2-1.1c1.7,1.8-0.1,3-1.2,4.1c-2,2-4.1,3.8-6.6,6.1c2.6,2.6,4.8,4.8,6.9,7c1.1,1.1,2.5,2.4,0.9,4
		c-1.6,1.6-2.9,0.1-3.9-1C276.6,1218.8,274.6,1216.5,271.9,1213.5z"/>
	<path class="st0" d="M304.9,1252.8c-6,0-11.9,0-17.9,0c-1.6,0-3.8,0.4-3.9-2c0-2.6,2.3-2.2,4-2.2c11.8,0,23.6,0,35.5,0
		c1.6,0,4.1-0.7,4.1,2c0,3-2.6,2.1-4.3,2.1C316.7,1252.9,310.8,1252.8,304.9,1252.8z"/>
	<path class="st0" d="M314.4,1181.7c-4.6-1.2-9.3-2.5-13.9-3.7c-1.5-0.4-3.5-0.8-2.7-2.9c0.3-0.8,2.5-1.4,3.6-1.2
		c9.5,2.4,19,4.9,28.5,7.6c1,0.3,1.7,1.9,2.5,2.9c-1.2,0.4-2.6,1.2-3.7,1C323.8,1184.3,319.1,1182.9,314.4,1181.7z"/>
	<path class="st0" d="M384.1,579.8c-4.8,1.2-9.5,2.3-14.3,3.5c-1.5,0.4-3.2,0.7-3.4-1.4c0-0.9,1.3-2.4,2.3-2.6
		c9.6-2.5,19.2-4.8,28.9-7c1-0.2,2.3,0.9,3.5,1.4c-0.9,0.9-1.7,2.3-2.8,2.6C393.7,577.6,388.9,578.6,384.1,579.8z"/>
	<path class="st0" d="M410.9,268.6c5.8,0,11.5-0.1,17.3,0.1c1.2,0,3.1,1.1,3.3,1.9c0.3,2-1.6,2-3.1,2c-11.7,0-23.5,0.1-35.2-0.1
		c-1.1,0-3.2-1.1-3.2-1.8c-0.2-2.3,1.9-2,3.4-2C399.1,268.6,405,268.6,410.9,268.6z"/>
	<path class="st0" d="M736.5,1064.4c0,5.5-4.5,10-10.2,10c-5.6,0-10.1-4.5-10-10c0-5.6,4.5-10,10.1-9.9
		C732,1054.4,736.5,1058.8,736.5,1064.4z M732.2,1064.4c0.1-3.1-2.6-5.8-5.9-5.8c-3.1,0-5.8,2.4-5.9,5.4c-0.2,3.1,2.5,5.9,5.7,6
		C729.4,1070.1,732.1,1067.6,732.2,1064.4z"/>
	<path class="st0" d="M694.3,1032.9c5.8,0,11.5-0.1,17.3,0.1c1.2,0,3.1,1.1,3.3,1.9c0.3,2-1.6,2-3.1,2c-11.7,0-23.5,0.1-35.2-0.1
		c-1.1,0-3.2-1.1-3.2-1.8c-0.2-2.3,1.9-2,3.4-2C682.5,1032.9,688.4,1032.9,694.3,1032.9z"/>
	<path class="st0" d="M634.5,179.9c-5.3-1.2-10.6-2.4-15.9-3.8c-1-0.3-2.5-1.6-2.5-2.4c0.1-2.1,1.9-1.7,3.4-1.4
		c10.6,2.5,21.2,5,31.8,7.4c1.5,0.3,3.2,0.8,2.4,2.7c-0.3,0.7-2.2,1.2-3.3,1C645,182.5,639.8,181.2,634.5,179.9z"/>
	<path class="st0" d="M721.5,412.5c-7.7-1.8-12.3-9-10.6-16.6c1.7-7.4,9.4-12.2,16.8-10.4c7.4,1.8,12.1,9.5,10.3,16.9
		C736.2,409.8,729,414.2,721.5,412.5z M726.8,389.6c-5.2-1.3-10.6,2-11.8,7.2c-1.2,5,2.1,10.4,7.1,11.7c5,1.3,10.6-2.2,11.8-7.3
		C735.1,396.1,731.9,390.9,726.8,389.6z"/>
	<path class="st0" d="M717.5,359.8c3,2.8,5.4,4.8,7.5,7.1c0.7,0.8,0.6,2.3,0.8,3.4c-1.3-0.2-2.9,0-3.7-0.7c-2.3-2.1-4.2-4.6-7-8
		c-2.7,3.2-4.4,5.6-6.6,7.7c-0.9,0.8-3.2,1.5-3.9,1c-1.7-1.3-0.3-2.8,0.9-3.9c2.2-2.1,4.5-4.1,7.6-6.9c-2.9-2.5-5.4-4.4-7.6-6.6
		c-0.8-0.8-1.4-2.9-0.9-3.6c1.3-1.9,2.7-0.4,3.8,0.8c2.1,2.2,4.1,4.4,6.8,7.4c2.5-2.8,4.7-5.2,6.9-7.6c1-1.1,2.4-2.3,3.6-0.6
		c0.5,0.7,0,2.8-0.7,3.6C722.8,355.2,720.3,357.2,717.5,359.8z"/>
	<path class="st0" d="M667.9,379.8c-5.3-1.2-10.6-2.4-15.9-3.8c-1-0.3-2.5-1.6-2.5-2.4c0.1-2.1,1.9-1.7,3.4-1.4
		c10.6,2.5,21.2,5,31.8,7.4c1.5,0.3,3.2,0.8,2.4,2.7c-0.3,0.7-2.2,1.2-3.3,1C678.5,382.4,673.2,381,667.9,379.8z"/>
	<g>
		<path class="st0" d="M192.9,554.9c6.6-1.6,13.3-3.2,19.9-4.8c0.7-0.2,1.4-0.2,1.9-0.6c0.5-0.4,1.1-1.2,1-1.7
			c-0.1-0.5-1-1.1-1.6-1.2c-0.6-0.1-1.3,0.2-2,0.3c-13.3,3.2-26.7,6.5-40,9.7c-0.2,0.1-0.5,0.1-0.7,0.2c-1.1,0.3-2.7,0.5-2,2.2
			c0.3,0.6,1.9,0.9,2.9,0.9c1.3-0.1,2.7-0.6,4-0.9C181.8,557.6,187.4,556.3,192.9,554.9z"/>
		<path class="st0" d="M194.5,523.5c4.1-1,8.2-1.9,12.2-3c0.8-0.2,1.3-1.3,2-2c-0.9-0.3-1.9-1.1-2.7-1c-8.2,1.9-16.5,3.9-24.6,6
			c-0.8,0.2-1.3,1.4-1.9,2.1c0.9,0.3,1.8,1,2.6,0.9C186.2,525.6,190.4,524.5,194.5,523.5z"/>
		<path class="st0" d="M200,456.2c19.5-1.5,34.4,6.9,44.4,23.7c1.2,2,2.1,2.5,4.4,2c20.5-4.8,41.6,7.2,47.8,27.2
			c0.1,0.4,0.2,0.7,0.3,1.1c1-0.2,2.1-0.5,3.1-0.7c-6.2-22.2-28.2-35.1-49-31.4c-2.5,0.5-3.8-0.1-5.3-2.3
			c-11.7-18.7-33.4-27-55.4-21.4c-20.3,5.2-35.5,23.6-36.7,44.9c-0.3,4.5,0.2,9.1,0.4,13.9c-2.9,0.7-5.8,1.3-8.7,2.1
			c-19.7,6-30.5,26.3-25,46.9c5,18.9,25.3,30.9,44.7,26.3c27.9-6.7,55.7-13.4,83.6-20.2l-0.7-3.1c-27.6,6.7-55.2,13.4-82.8,20
			c-19.2,4.6-37.9-7.3-42.2-27c-4.1-18.4,8.5-37.2,27.4-40.9c2.7-0.5,5.5-0.6,8.6-0.9c-2.8-10-2.9-19.6,0.6-28.9
			C166.4,468.9,180,457.8,200,456.2z"/>
	</g>
	<path class="st0" d="M897.6,284.6c-2.9-0.7-5.9-1.2-8.8-2.2c-0.9-0.3-1.5-1.8-2.2-2.7c1-0.4,2.2-1.4,3.1-1.3
		c5.9,1.2,11.8,2.6,17.6,4.1c0.9,0.2,1.5,1.8,2.2,2.7c-1.1,0.4-2.3,1.3-3.3,1.1C903.2,286.1,900.4,285.3,897.6,284.6z"/>
	<g>
		<path class="st0" d="M502.8,1231.7c0.4-1.5,0.7-2.5,1-3.7c2.9,0.8,5.6,1.5,8.3,2.2c21.7,5.8,43.8-5.9,51.8-27.4
			c7.5-20.1-2.4-43.8-22.3-53.2c-2.3-1.1-4.8-2-7.3-2.6c-2.3-0.5-2.9-1.4-3-3.8c-0.4-19.1-8.8-33.7-25.3-43.2
			c-28.3-16.3-64.5-0.9-72.9,30.6c-0.3,1-0.5,2-0.8,3.1c-2.4-1.1-4.5-2.1-6.6-2.9c-18.9-7.3-39.8,2-47.7,21.3
			c-7.3,17.6,1.6,39.3,19.4,47.2c2,0.9,4,1.5,6.1,2.1c4.5,1.3,9.1,2.4,13.9,3.7c-0.3,1.1-0.6,2.1-0.9,3.4c-4.9-1.3-9.8-2.4-14.6-3.9
			c-3.3-1.1-6.7-2.3-9.7-4.1c-16.8-9.8-24.1-29.6-17.9-48.2c5.9-17.7,23.9-29.3,42.7-27.2c4.4,0.5,8.6,2.2,12.8,3.3
			c1.6-3.5,2.9-7,4.6-10.2c11-20.8,35.5-32.3,57.9-27.2c24.7,5.6,41.6,25.3,42.8,49.7c0.1,2,0.6,2.9,2.7,3.5
			c21,6.2,35.1,28.8,31.8,50.6c-3.8,24.9-24.6,41.9-49.5,40.2C514.2,1234.6,508.6,1232.9,502.8,1231.7z"/>
		<path class="st0" d="M423.7,1193.3c-0.5-0.1-0.6-0.2-0.7-0.2c-1.4,0.4-3.2,2.1-4.2-0.2c-1-2.2,1.4-2.6,2.6-3.4
			c1.9-1.3,3.9-2.5,6.5-4.3c1.6,3.1,3,5.6,4.1,8.3c0.3,0.8-0.1,2-0.2,3c-1-0.4-2-0.7-3-1.1c-0.4-0.2-0.6-0.8-1.2-1.5
			c-0.4,1.2-0.7,2-0.9,2.9c-2.7,10.1-5.4,20.3-8.1,30.4c-0.2,0.7-0.3,1.6-0.7,2.2c-0.4,0.5-1.4,1.1-1.8,0.9c-0.6-0.2-1.4-1-1.5-1.7
			c-0.2-0.8,0.2-1.7,0.4-2.5c2.6-10,5.3-19.9,7.9-29.9C423.2,1195.2,423.4,1194.3,423.7,1193.3z"/>
		<path class="st0" d="M462.2,1202.9c-1.1,0.5-1.6,0.9-2,0.8c-1-0.1-2.1-0.3-3.1-0.5c0.4-0.9,0.6-2.2,1.3-2.7c2.3-1.6,4.8-3,7.7-4.7
			c1.6,2.9,3.2,5.7,4.6,8.5c0.3,0.5-0.1,2-0.5,2.2c-0.7,0.3-1.8,0.1-2.5-0.2c-0.6-0.3-0.9-1.1-1.8-2.3c-0.4,1.4-0.6,2.2-0.8,3.1
			c-2.6,10-5.3,19.9-7.9,29.9c-0.2,0.9-0.4,1.9-1,2.6c-0.4,0.5-1.5,0.9-2.1,0.8c-0.5-0.1-1-1.1-1.1-1.7c-0.1-0.7,0.2-1.5,0.4-2.2
			c2.7-10,5.3-20.1,8-30.1C461.6,1205.3,461.8,1204.4,462.2,1202.9z"/>
		<path class="st0" d="M500.1,1214.3c-1.8-0.4-4.1-0.2-4.5-1.1c-1-2,1.3-2.5,2.6-3.4c1.9-1.3,3.9-2.5,6.4-4.2
			c1.6,3.1,3.1,5.7,4.2,8.3c0.3,0.8-0.2,1.9-0.3,2.9c-1-0.4-2-0.7-2.9-1.1c-0.4-0.2-0.6-0.8-1.2-1.7c-0.4,1.3-0.8,2.2-1,3.1
			c-2.7,10-5.3,20.1-8,30.1c-0.2,0.7-0.2,1.6-0.7,2.2c-0.4,0.6-1.4,1.2-2,1c-0.6-0.2-1.2-1.1-1.4-1.8c-0.2-0.7,0.2-1.5,0.4-2.2
			c2.7-10.3,5.5-20.6,8.2-30.9C500,1214.9,500.1,1214.3,500.1,1214.3z"/>
		<path class="st0" d="M493.5,1228.8c-9.9-2.6-19.4-5.1-29-7.7c0.3-1,0.5-2,0.8-3.1c9.5,2.5,19,5.1,28.9,7.7
			C493.9,1226.6,493.8,1227.5,493.5,1228.8z"/>
		<path class="st0" d="M426,1210.8c0.3-1,0.5-2,0.8-3.1c9.6,2.6,19.1,5.1,28.8,7.7c-0.3,1-0.5,1.9-0.8,3.1
			C445.3,1215.9,435.8,1213.4,426,1210.8z"/>
	</g>
	<path class="st0" d="M394,536.1c2.9-0.7,5.9-1.6,8.9-2c0.9-0.1,2,0.9,3,1.4c-0.6,0.8-1.1,2.2-1.9,2.4c-6.1,1.6-12.2,3.1-18.3,4.4
		c-0.8,0.2-1.8-0.9-2.7-1.3c0.6-0.9,1.1-2.3,2-2.5C387.8,537.4,390.9,536.8,394,536.1z"/>
	<g>
		<path class="st0" d="M624.4,266.4c1.7,0.1,3.1,0.1,4.3,0.4c0.6,0.1,1.1,0.8,1.5,1.4c0.2,0.3,0.1,0.9,0.1,1.4
			c0.1,1.6,0.7,3.5,0,4.6c-0.6,1-2.7,1-4.2,1.5c-0.2,0.1-0.5,0.2-1.1,0.5c1.9,0.8,3.4,1.5,5.3,2.3c-0.6,2.2-1.2,4.5-1.9,6.7
			c-0.1,0.4-1,0.7-1.5,0.7c-1.3,0-2.6-0.2-4.1,0.1c1,0.8,1.9,1.7,2.9,2.5c0.9,0.6,0.9,1.2,0.4,2.2c-1.1,1.9-2.1,3.8-3.1,5.7
			c-2.3-1-3.8-1.7-5.4-2.3c-0.1,0.1-0.3,0.2-0.4,0.4c0.7,1.1,1.3,2.2,2.1,3.2c0.6,0.8,0.6,1.5-0.3,2.2c-1.4,1.1-2.7,2.2-4,3.3
			c-0.9,0.8-1.6,0.7-2.4-0.1c-0.8-0.9-1.8-1.6-2.8-2.4c-0.2,0.1-0.3,0.2-0.5,0.3c0.3,1.2,0.7,2.5,0.8,3.7c0,0.6-0.4,1.5-0.9,1.8
			c-1.4,0.8-3,1.2-4.4,1.9c-1.4,0.6-2.2,0.2-2.8-1.2c-0.4-0.9-1-1.8-2.1-2.7c-0.1,1.2-0.3,2.3-0.3,3.5c0,1.2-0.5,1.8-1.8,1.9
			c-0.5,0-0.9,0.1-1.4,0.2c-4.8,0.4-4.7,0.4-6-4.1c-0.1-0.3-0.3-0.6-0.6-1.2c-0.6,1.4-1.2,2.4-1.5,3.5c-0.4,1.4-1.2,1.7-2.5,1.3
			c-0.1,0-0.3,0-0.4-0.1c-1.7-0.5-3.9-0.4-4.9-1.5c-0.8-0.9-0.2-3.1-0.3-4.7c0-0.2-0.1-0.3-0.3-0.8c-1.3,1.4-2.4,2.6-3.8,4.2
			c-2.2-1.4-4.4-2.8-6.7-4.3c0.8-1.7,1.5-3.2,2.2-4.8c-0.1-0.1-0.2-0.2-0.3-0.3c-1.2,0.7-2.3,1.4-3.5,2c-0.6,0.2-1.4,0-2-0.2
			c-0.4-0.1-0.7-0.6-1-1c-1-1.2-2.6-2.4-2.7-3.7c-0.1-1.2,1.6-2.5,2.4-3.7c0.1-0.2,0.2-0.4,0.6-1.1c-1.6,0.4-2.8,0.8-4.1,0.9
			c-0.6,0.1-1.6-0.3-1.8-0.7c-0.8-1.5-1.3-3.1-2-4.7c-0.5-1.2-0.1-1.9,1.1-2.5c1-0.5,1.9-1.1,2.8-2.1c-1.1-0.1-2.3-0.3-3.4-0.3
			c-1.4,0-2-0.5-2-1.8c0-0.5-0.1-0.9-0.2-1.4c-0.4-4.5-0.4-4.5,4-5.7c0.4-0.1,0.7-0.3,1.4-0.7c-1.5-0.6-2.6-1.1-3.8-1.6
			c-1-0.3-1.5-0.8-1.1-1.9c0.3-1.2,0.6-2.4,0.9-3.6c0.2-0.9,0.6-1.7,0.9-2.7c1.8,0.2,3.5,0.3,5.2,0.5c0.1-0.1,0.2-0.3,0.3-0.4
			c-1.3-1.1-2.6-2.2-4.2-3.6c1.4-2.2,2.8-4.4,4.3-6.6c1.9,0.8,3.5,1.5,5.1,2.1c0.1-0.1,0.2-0.2,0.3-0.3c-0.7-1.1-1.3-2.2-2-3.2
			c-0.6-0.9-0.5-1.5,0.3-2.2c1.4-1.1,2.7-2.2,4-3.3c0.9-0.8,1.6-0.7,2.4,0.2c0.9,0.9,1.8,1.6,3.2,2.2c-0.3-1.2-0.7-2.5-0.8-3.7
			c0-0.6,0.6-1.4,0.9-2c0.1-0.2,0.5-0.2,0.7-0.3c1.6-0.6,3.4-1.8,4.9-1.6c1.2,0.2,2,2.3,3,3.5c0.1,0.2,0.3,0.3,0.8,0.8
			c0.1-1.6,0.1-2.9,0.4-4.2c0.1-0.6,0.8-1.1,1.4-1.5c0.4-0.3,1-0.2,1.6-0.2c4.8-0.4,4.8-0.4,6.1,4.2c0.1,0.2,0.2,0.4,0.6,1.1
			c0.7-1.5,1.2-2.7,1.7-3.9c0.4-1,0.9-1.3,2-1.1c0.4,0.1,0.9,0.2,1.4,0.3c1.5,0.4,3.6,0.4,4.5,1.4c0.8,0.9,0.1,2.9,0.1,4.4
			c0,0.2,0.1,0.5,0.2,1.2c0.9-1.1,1.8-1.8,2.4-2.7c0.9-1.4,1.9-1.5,3.2-0.5c0.1,0.1,0.2,0.1,0.3,0.2c1.4,0.9,3.4,1.5,4,2.8
			c0.5,1.1-0.7,2.9-1.2,4.4c-0.1,0.2-0.1,0.4-0.1,1c1.2-0.7,2.3-1.2,3.2-1.8c1.2-1,2.1-0.8,3,0.4c0.1,0.2,0.4,0.4,0.5,0.6
			c1,1.2,2.7,2.4,2.8,3.7c0.1,1.2-1.6,2.4-2.5,3.7c-0.1,0.2-0.3,0.4-0.7,1.2c1.4-0.3,2.3-0.4,3.2-0.7c1.9-0.8,2.9-0.2,3.4,1.6
			c0.5,1.6,1.8,3.2,1.5,4.6c-0.3,1.2-2.4,1.9-3.7,2.9C625,265.7,624.9,265.9,624.4,266.4z M606.9,247.4c-4.4-1.4-4.4-1.4-3.9-5.1
			c0.1-1.2,0-1.8-1.3-2.1c-1.2-0.3-1.9,0-2.3,1.2c-0.3,0.8-0.6,1.6-1,2.4c-0.2,0.4-0.7,0.8-1.1,0.8c-3.2,0.3-3.8-0.1-4.5-3.2
			c-0.1-0.3-0.2-0.6-0.2-1c-0.1-1.2-0.9-1.2-1.9-1.1c-1,0-1.7,0.3-1.7,1.4c0,0.9,0,1.8-0.2,2.7c-0.1,0.4-0.4,1-0.8,1.2
			c-2.6,1.3-3.8,0.9-5.3-1.6c-0.2-0.3-0.3-0.7-0.5-0.8c-0.6-0.3-1.3-0.7-1.9-0.6c-1,0.1-1.9,0.5-1.5,1.8c0.2,0.8,0.5,1.6,0.7,2.5
			c0.1,0.5,0,1.2-0.3,1.6c-1.8,2-3.5,2-5.5,0.3c-0.3-0.3-0.6-0.7-0.9-0.8c-0.6-0.1-1.4-0.3-1.9-0.1c-1.3,0.6-1.6,1.5-0.6,2.8
			c0.7,0.9,1.6,2.1,1.4,3.1c-0.5,2.2-2.9,3.1-5,2.1c-2.7-1.2-3-1.1-3.9,1.8c0.9,0.8,1.9,1.5,2.9,2.4c0.3,0.3,0.7,0.7,0.7,1.1
			c0,2.4-1.8,3.8-4.2,3.6c-2.9-0.3-3-0.3-3.2,2.8c1.1,0.5,2.3,0.9,3.4,1.4c0.4,0.2,0.9,0.6,1.1,1c0.7,2.4-0.5,4.1-3,4.6
			c-0.4,0.1-0.9,0-1.2,0.3c-0.5,0.4-1.1,0.9-1.2,1.4c-0.4,1.7,0.6,2.1,2.1,2.1c3.2,0.1,3.1,0.2,3.8,3c0.7,2.4-1.3,2.5-2.6,3.3
			c-1.6,1-1.9,2.1-0.6,3.2c0.5,0.4,1.8,0.1,2.7,0c1.5-0.3,2.7-0.7,3.7,1.1c0.8,1.6,1.4,2.8-0.4,4c-0.3,0.2-0.5,0.5-0.7,0.7
			c-1.2,1.3-1.1,2.3,0.4,3.1c0.5,0.3,1.4-0.2,2.1-0.4c1.1-0.4,2.3-1.4,3.2-1.2c2.4,0.6,3.1,2.7,2,4.9c-0.1,0.2-0.2,0.5-0.3,0.7
			c-0.6,1-0.6,1.7,0.5,2.4c1.2,0.8,1.9,0.5,2.7-0.6c0.7-0.9,1.4-1.7,2.1-2.5c4.3,1.4,4.3,1.4,3.9,5.3c-0.1,1.2,0.2,1.6,1.4,1.9
			c1.8,0.5,2.1-0.6,2.5-1.7c0.6-1.6,0.9-3,3.4-2.6c1.9,0.3,2.8,0.8,2.9,2.8c0,1.1-0.1,2.6,2,2.5c1.4-0.1,1.9-0.5,1.9-1.9
			c0-1.1,0.1-2.6,0.8-3.3c1.6-1.6,4.2-0.9,5.4,1.1c1.4,2.5,1.4,2.5,4.1,0.8c-0.3-1.1-0.6-2.4-0.8-3.6c-0.1-0.5,0-1.1,0.3-1.4
			c1.8-2,3.5-2,5.5-0.3c0.1,0.1,0.3,0.3,0.4,0.4c0.8,0.9,1.5,1.2,2.7,0.3c1.2-1,0.8-1.7,0.2-2.7c-1.8-2.8-1.8-2.9,0.5-5.3
			c0.3-0.3,0.5-0.5,0.8-0.8c0.8,0.4,1.6,0.7,2.3,1c2.7,1.2,2.7,1.2,4-1.7c-0.9-0.8-1.9-1.5-2.8-2.4c-0.3-0.3-0.8-0.8-0.7-1.2
			c0.1-2.5,1.8-3.8,4.2-3.5c2.9,0.3,2.9,0.3,3.1-2.8c-1.1-0.5-2.3-0.9-3.5-1.4c-0.4-0.2-0.9-0.4-1-0.8c-0.8-2.1,0.6-4.3,2.8-4.8
			c0.5-0.1,1,0,1.4-0.2c0.5-0.4,1.1-0.9,1.2-1.4c0.3-1.5-0.5-2.2-2.2-2.2c-1.1,0-2.7-0.2-3.2-0.9c-1.6-2.4-1.1-3.7,1.4-5.1
			c0.3-0.2,0.7-0.2,0.9-0.5c0.3-0.6,0.8-1.3,0.7-1.9c-0.1-1.4-1-1.8-2.4-1.4c-1.1,0.3-2.6,0.8-3.4,0.4c-2-1-2.1-3.6-0.6-5.3
			c0.3-0.3,0.5-0.6,0.8-0.9c0.9-0.8,0.8-1.5,0.1-2.3c-0.7-0.7-1.3-1.3-2.3-0.5c-0.5,0.4-1.1,0.6-1.5,1c-1.2,1-2.1,0.6-3.3-0.2
			c-1.7-1.2-2-2.4-0.8-4.1c0.2-0.3,0.3-0.7,0.5-1.1c0.6-0.9,0.3-1.5-0.7-2.1c-0.9-0.5-1.6-1-2.4,0.1
			C608.5,245.6,607.7,246.5,606.9,247.4z"/>
		<path class="st0" d="M617.1,239.5c-2.6-0.8-3.4-1.9-3.7-3.7c-3.1-17.6-18.5-29.1-36.8-27.5c-1.9,0.2-3.8,0.8-5.6,1.2
			c-11.2-18.8-27.5-27.3-48.7-19.9c-22,7.7-29.1,24.8-25.4,46.8c-1.5,0.1-3,0.1-4.5,0.3c-16.9,1.7-28.6,16.7-26,33.2
			c2.5,15.7,18.6,26.3,34.9,22.8c15.9-3.5,31.8-7.1,47.6-10.7c0.8-0.2,1.7-0.4,2.7-0.6c0.3,0.9,0.5,1.6,0.7,2.6
			c-0.9,0.2-1.6,0.3-2.3,0.5c-16.1,3.6-32.2,7.2-48.2,10.8c-16.2,3.6-32.3-5.5-37.2-21c-5.5-17.5,5.5-35.8,23.8-39.7
			c1.6-0.3,3.3-0.5,5.1-0.8c-0.2-2-0.4-3.9-0.5-5.8c-1-18.7,11.3-36.1,29.4-41.6c18.9-5.7,38.6,1.6,48.4,18c0.9,1.5,1.8,1.9,3.5,1.5
			c18.3-3.3,37,8.7,41.1,26.4C616,234.6,616.5,236.8,617.1,239.5z"/>
		<path class="st0" d="M512.5,263.3c-6.7,1.5-13.4,3-20.1,4.5c-0.6,0.1-1.3,0.4-1.8,0.2c-0.5-0.2-1.1-0.7-1.3-1.2
			c-0.1-0.3,0.4-1,0.9-1.3c0.5-0.3,1.1-0.3,1.7-0.5c13.2-3,26.5-5.9,39.7-8.9c0.3-0.1,0.6-0.2,0.8-0.2c0.8,0.2,1.6,0.5,2.4,0.8
			c-0.6,0.7-1.1,1.7-1.8,1.9c-5.6,1.4-11.3,2.6-16.9,3.9C515,262.8,513.7,263.1,512.5,263.3z"/>
		<path class="st0" d="M530.3,239.5c-4.2,0.9-8.4,1.9-12.6,2.8c-1.1,0.2-2.4,0.8-2.8-0.9c-0.4-1.5,1-1.6,2-1.9
			c8.6-1.9,17.2-3.9,25.8-5.8c0.2,0,0.4-0.2,0.6-0.1c0.7,0.3,1.4,0.6,2.2,0.9c-0.5,0.6-1,1.6-1.6,1.8
			C539.4,237.5,534.8,238.5,530.3,239.5z"/>
		<path class="st0" d="M617.9,267.7c3.1,13.6-5.5,27-19.4,30.1c-13.7,3.1-27.6-5.4-30.7-18.9c-3.1-13.6,5.7-27.3,19.5-30.3
			C601.3,245.7,614.8,254.2,617.9,267.7z M570.5,278.3c2.8,12.1,15.1,19.7,27.4,16.9c12.2-2.7,20.1-14.9,17.4-26.8
			c-2.7-12-15.2-19.8-27.4-17.1C575.7,254.1,567.7,266.3,570.5,278.3z"/>
	</g>
	<g>
		<path class="st0" d="M502.5,800c-0.1-5.4-0.7-10.5-0.4-15.6c1.5-23.9,18.7-44.5,41.5-50.2c24.8-6.2,49.1,3.2,62.2,24.2
			c1.6,2.5,3,3.2,5.9,2.7c24.5-4.3,50.5,12,55.8,39.3c4.8,24.8-11,50.3-35.9,56.4c-39,9.4-78.1,18.7-117.1,27.9
			c-21.8,5.1-44.5-8.5-50.1-29.7c-6.1-23.2,6.1-45.9,28.3-52.5C495.9,801.4,499.2,800.7,502.5,800z M507.9,803.7
			c-3.5,0.3-6.6,0.4-9.7,1c-21.2,4-35.4,25.1-31,45.8c4.8,22.1,25.7,35.6,47.3,30.5c38.4-9.1,76.8-18.2,115.2-27.4
			c2-0.5,3.9-1.1,5.7-1.8c22.3-8.6,34.2-33,27.2-55.7c-6.9-22.5-30.5-36.1-53.6-30.8c-2.6,0.6-3.6,0-4.9-2.3
			c-11.2-18.9-27.9-28.5-49.7-26.8c-22.4,1.7-37.8,14.1-45.8,35.1C504.7,781.7,504.7,792.4,507.9,803.7z"/>
		<path class="st0" d="M566.8,839.6c16.1-3.8,32.3-7.7,48.4-11.5c1-0.2,2-0.7,2.9-0.6c0.8,0.1,2.2,0.8,2.3,1.4
			c0.1,0.9-0.5,2-1.2,2.7c-0.6,0.5-1.7,0.6-2.5,0.8c-32.5,7.7-65,15.5-97.5,23.2c-0.7,0.2-1.4,0.6-1.9,0.4c-1.1-0.4-2.1-1.1-3.1-1.7
			c0.7-0.9,1.2-1.9,2.1-2.6c0.7-0.5,1.7-0.5,2.6-0.7C534.8,847.2,550.8,843.4,566.8,839.6z"/>
		<path class="st0" d="M562,819c-9.9,2.4-19.9,4.7-29.8,7.1c-1,0.2-2.1,0.6-2.9,0.4c-0.8-0.2-1.7-1.1-2-1.8
			c-0.2-0.6,0.5-1.6,1.2-2.1c0.7-0.5,1.7-0.6,2.6-0.8c20-4.8,39.9-9.5,59.9-14.2c0.9-0.2,1.8-0.6,2.6-0.5c0.8,0.1,1.9,0.8,2,1.3
			c0.1,0.8-0.3,2-0.9,2.5c-0.7,0.6-1.9,0.7-2.8,0.9C581.8,814.3,571.9,816.6,562,819z"/>
	</g>
	<g>
		<path class="st0" d="M205.9,202.1c-7.1-1.4-14.1-2.9-21.2-4.3c-1.7-0.4-4-0.5-3.4-3c0.5-2.3,2.5-1.7,4.1-1.3
			c14.6,3,29.1,5.9,43.7,8.9c0.3,0.1,0.7,0,0.9,0.2c0.9,0.8,1.7,1.8,2.5,2.6c-1.2,0.5-2.5,1.7-3.5,1.5
			C221.2,205.3,213.6,203.7,205.9,202.1z"/>
		<path class="st0" d="M224.7,177.1c-4-0.8-8-1.5-11.9-2.5c-1-0.3-1.7-1.6-2.5-2.5c1.1-0.6,2.4-1.8,3.4-1.6c8.2,1.5,16.4,3.2,24.5,5
			c1,0.2,1.6,1.9,2.4,2.9c-1.1,0.5-2.3,1.4-3.3,1.3C233.1,178.9,228.9,178,224.7,177.1z"/>
		<path class="st0" d="M131.8,127c2.2-5.1,3.9-10.2,6.5-14.8c11.9-21.8,36.9-33.6,60.7-29c26,5,44.7,24.4,47.7,49.8
			c0.4,3.1,1.5,4.3,4.4,5.1c24.9,6.6,42.1,33.2,35.2,61.1c-6.3,25.4-32.2,42.4-58.1,37.2c-40.7-8.2-81.3-16.5-121.9-24.9
			c-22.6-4.7-38-27.3-34-49.7c4.4-24.4,25.7-40.3,49.4-36.9C125,125.5,128.4,126.3,131.8,127z M135.2,132.8
			c-3.4-1.2-6.4-2.5-9.5-3.3c-21.7-5.5-44.1,8.1-49,29.4c-5.1,22.8,8.6,44.5,31.1,49.1c40,8.2,79.9,16.3,119.9,24.4
			c2,0.4,4.1,0.6,6.2,0.8c24.7,1.6,46.4-16.1,49.8-40.4c3.3-24.1-12.9-47.1-36.8-52.2c-2.6-0.6-3.4-1.6-3.6-4.3
			c-2.3-22.5-13.7-38.8-35-46.8c-21.8-8.2-41.5-3.2-58.2,13C141.8,110.8,137.1,120.9,135.2,132.8z"/>
	</g>
	<g>
		<path class="st0" d="M301.4,584.2c-12.1,2.9-24.2,5.7-36.2,8.9c-4.5,1.2-6.4,0.1-7.5-4.5c-4.2-18.5-8.7-36.9-13.4-55.3
			c-1.2-4.7,0.1-6.4,4.6-7.4c24.4-5.7,48.8-11.6,73.1-17.7c4.2-1.1,6-0.1,7,4.3c4.3,18.7,8.8,37.4,13.6,56c1.1,4.4-0.1,6-4.3,7
			C326,578.1,313.7,581.2,301.4,584.2z M325.4,511.2c-26.7,6.5-52.2,12.7-77.9,18.9c4.9,20.3,9.7,40.1,14.5,59.8
			c26.1-6.3,51.7-12.5,77.9-18.9c-4.3-18-8.6-35.5-12.8-53C326.6,515.9,326,513.8,325.4,511.2z"/>
		<path class="st0" d="M308.3,541.9c-3.3,6-6.2,11.3-9.3,17c3.1,2.4,6,4.6,8.9,6.8c-0.4,0.7-0.8,1.4-1.2,2.1
			c-6.5-3.8-12.9-7.6-19.7-11.5c-6.5,9.3-12.8,18.2-19.7,28c-0.7-5.2,9-20.7,19.1-31.9c3,1.6,6.1,3.2,9.6,5
			c3.6-6.5,7.1-12.8,11.1-20c8.2,4.5,15.8,8.8,23.5,13.1c-0.5,0.9-0.9,1.7-1.4,2.6C322.5,549.3,315.7,545.8,308.3,541.9z"/>
		<path class="st1" d="M271.1,553.1c-4.7,1.2-9.6-1.8-10.7-6.5c-1.2-4.7,1.8-9.6,6.5-10.7c4.8-1.2,9.6,1.8,10.7,6.5
			C278.8,547.2,275.9,552,271.1,553.1z M267.6,538.7c-3.2,0.8-5.2,4-4.4,7.2s4,5.2,7.2,4.4c3.2-0.8,5.2-4,4.4-7.2
			C274.1,539.9,270.8,537.9,267.6,538.7z"/>
	</g>
	<g>
		<path class="st0" d="M415.5,216.4c-9.7-1.9-19.3-3.8-29.1-5.5c-3.7-0.6-4.7-2-3.9-5.7c3-14.7,5.8-29.5,8.5-44.4
			c0.7-3.8,2.1-4.6,5.8-3.9c19.5,3.9,39.1,7.6,58.6,11.2c3.4,0.6,4.4,1.9,3.7,5.4c-3,14.9-5.9,29.9-8.6,44.9
			c-0.6,3.5-2.1,4.3-5.4,3.6C435.3,220.1,425.4,218.3,415.5,216.4z M456.9,171.6c-21.4-4.1-41.9-8-62.5-12
			c-3.1,16.3-6.1,32.1-9.2,48c20.9,4,41.5,7.9,62.5,12c2.8-14.4,5.4-28.4,8.1-42.5C456.1,175.4,456.5,173.6,456.9,171.6z"/>
		<path class="st0" d="M434.4,188.1c-4.3,3.2-8.2,6.1-12.3,9.2c1.4,2.7,2.8,5.3,4.2,7.8c-0.5,0.4-1,0.8-1.6,1.1
			c-3.4-4.9-6.9-9.7-10.5-14.8c-7.7,4.5-15.2,8.9-23.4,13.7c1.2-4,13.3-12,24.3-16.8c1.6,2.1,3.4,4.3,5.3,6.8
			c4.7-3.5,9.3-6.9,14.6-10.8c4.4,5.9,8.6,11.6,12.7,17.2c-0.6,0.5-1.2,0.9-1.9,1.4C442.2,198.2,438.5,193.4,434.4,188.1z"/>
		<path class="st1" d="M403.9,184c-3.8-0.7-6.3-4.4-5.6-8.2c0.7-3.8,4.4-6.3,8.2-5.6c3.8,0.7,6.3,4.4,5.6,8.2
			C411.4,182.3,407.7,184.8,403.9,184z M406.1,172.4c-2.6-0.5-5.1,1.2-5.6,3.8c-0.5,2.6,1.2,5.1,3.8,5.6c2.6,0.5,5.1-1.2,5.6-3.8
			C410.4,175.4,408.7,172.9,406.1,172.4z"/>
	</g>
	<path class="st0" d="M814.9,963.1c0,5.5-4.4,10-9.9,10c-5.5,0-9.8-4.5-9.8-10c0-5.6,4.4-10,9.9-9.9
		C810.6,953.1,814.9,957.5,814.9,963.1z M810.8,963.2c0.1-3.1-2.6-5.8-5.7-5.8c-3.1,0-5.6,2.4-5.8,5.4c-0.2,3.1,2.5,5.9,5.6,6
		C808,968.8,810.7,966.3,810.8,963.2z"/>
	<path class="st0" d="M773.6,931.7c5.6,0,11.3-0.1,16.9,0.1c1.1,0,3.1,1.1,3.2,1.9c0.3,2-1.6,2-3.1,2c-11.5,0-22.9,0.1-34.4-0.1
		c-1.1,0-3.1-1.1-3.2-1.8c-0.2-2.3,1.8-2,3.4-2C762.2,931.6,767.9,931.7,773.6,931.7z"/>
	<path class="st0" d="M380.4,748.4c-5.4,0-10.9,0.1-16.3-0.1c-1,0-2.8-1-3-1.7c-0.4-2.1,1.5-2.1,3-2.1c10.9,0,21.8,0,32.6,0
		c1.5,0,3.3,0.1,2.9,2.1c-0.1,0.8-1.9,1.7-3,1.7C391.3,748.5,385.8,748.4,380.4,748.4z"/>
	<g>
		<path class="st0" d="M981.8,933c1.7,0.2,3,0.3,4.2,0.6c0.6,0.2,1,0.9,1.4,1.4c0.2,0.3,0.1,0.9,0.1,1.4c0,1.6,0.5,3.5-0.2,4.6
			c-0.6,0.9-2.7,0.9-4.2,1.3c-0.2,0.1-0.5,0.2-1.1,0.5c1.8,0.9,3.3,1.6,5.1,2.5c-0.7,2.2-1.3,4.5-2.1,6.6c-0.1,0.4-1,0.7-1.5,0.6
			c-1.3-0.1-2.5-0.3-4-0.1c0.9,0.9,1.8,1.8,2.7,2.6c0.8,0.7,0.9,1.3,0.3,2.2c-1.1,1.8-2.2,3.7-3.3,5.6c-2.2-1.1-3.7-1.8-5.2-2.6
			c-0.1,0.1-0.3,0.2-0.4,0.3c0.6,1.1,1.2,2.2,1.9,3.3c0.5,0.9,0.5,1.5-0.3,2.2c-1.4,1-2.7,2-4.1,3.1c-0.9,0.7-1.6,0.6-2.3-0.2
			c-0.8-0.9-1.7-1.7-2.6-2.5c-0.2,0.1-0.3,0.2-0.5,0.2c0.2,1.3,0.6,2.5,0.6,3.8c0,0.6-0.4,1.5-0.9,1.7c-1.4,0.7-2.9,1.1-4.4,1.7
			c-1.4,0.5-2.2,0.1-2.7-1.3c-0.4-1-0.9-1.8-2-2.8c-0.1,1.2-0.4,2.3-0.4,3.5c-0.1,1.2-0.6,1.8-1.8,1.8c-0.5,0-0.9,0.1-1.4,0.1
			c-4.7,0.2-4.7,0.2-5.7-4.3c-0.1-0.3-0.2-0.6-0.5-1.2c-0.7,1.4-1.3,2.3-1.6,3.4c-0.5,1.4-1.3,1.7-2.5,1.2c-0.1,0-0.3-0.1-0.4-0.1
			c-1.6-0.5-3.8-0.6-4.7-1.7c-0.8-1-0.1-3.1-0.1-4.7c0-0.2-0.1-0.4-0.2-0.8c-1.3,1.3-2.4,2.5-3.9,4c-2.1-1.5-4.2-3-6.4-4.6
			c0.8-1.7,1.6-3.2,2.3-4.7c-0.1-0.1-0.2-0.2-0.3-0.4c-1.2,0.6-2.3,1.3-3.5,1.8c-0.6,0.2-1.3,0-2-0.3c-0.4-0.1-0.6-0.6-0.9-1
			c-0.9-1.3-2.5-2.5-2.5-3.9c0-1.2,1.6-2.4,2.5-3.6c0.1-0.2,0.3-0.4,0.6-1c-1.6,0.3-2.8,0.6-4,0.7c-0.6,0-1.6-0.3-1.8-0.8
			c-0.7-1.5-1.2-3.2-1.8-4.8c-0.5-1.2,0-1.9,1.1-2.4c1-0.4,1.9-1,2.9-2c-1.1-0.2-2.2-0.4-3.4-0.4c-1.3,0-1.9-0.6-1.9-1.9
			c0-0.5-0.1-0.9-0.1-1.4c-0.2-4.5-0.2-4.5,4.1-5.5c0.3-0.1,0.7-0.3,1.4-0.6c-1.5-0.7-2.5-1.3-3.7-1.7c-0.9-0.4-1.4-0.9-1-1.9
			c0.4-1.2,0.6-2.4,1-3.6c0.3-0.9,0.6-1.7,1-2.7c1.8,0.2,3.4,0.5,5.1,0.7c0.1-0.1,0.2-0.3,0.3-0.4c-1.2-1.2-2.4-2.3-3.9-3.8
			c1.5-2.1,3-4.3,4.4-6.4c1.8,0.9,3.4,1.6,4.9,2.3c0.1-0.1,0.2-0.2,0.3-0.3c-0.6-1.1-1.1-2.3-1.8-3.3c-0.6-0.9-0.5-1.6,0.4-2.2
			c1.4-1,2.7-2,4.1-3.1c0.9-0.7,1.6-0.6,2.3,0.3c0.8,0.9,1.7,1.7,3,2.4c-0.2-1.2-0.6-2.5-0.6-3.7c0-0.7,0.6-1.3,1-1.9
			c0.1-0.2,0.5-0.2,0.7-0.3c1.6-0.5,3.4-1.7,4.8-1.4c1.1,0.3,1.8,2.3,2.8,3.6c0.1,0.2,0.3,0.3,0.8,0.8c0.2-1.6,0.2-2.9,0.6-4.1
			c0.2-0.6,0.8-1.1,1.4-1.4c0.4-0.2,1-0.1,1.6-0.1c4.7-0.1,4.7-0.1,5.8,4.5c0.1,0.2,0.2,0.4,0.5,1.1c0.7-1.5,1.3-2.6,1.8-3.8
			c0.4-1,1-1.3,2-1c0.4,0.1,0.9,0.2,1.3,0.3c1.5,0.5,3.5,0.6,4.3,1.6c0.7,0.9,0,2.9-0.1,4.4c0,0.2,0.1,0.5,0.1,1.2
			c1-1,1.8-1.7,2.4-2.6c1-1.3,1.9-1.4,3.1-0.4c0.1,0.1,0.2,0.1,0.3,0.2c1.3,1,3.3,1.7,3.8,3c0.4,1.1-0.8,2.9-1.3,4.4
			c-0.1,0.2-0.1,0.4-0.2,1c1.2-0.6,2.3-1.1,3.2-1.7c1.2-0.9,2.1-0.7,2.9,0.6c0.1,0.2,0.4,0.4,0.5,0.6c0.9,1.3,2.5,2.5,2.6,3.9
			c0,1.2-1.7,2.4-2.6,3.6c-0.2,0.2-0.3,0.4-0.7,1.2c1.3-0.2,2.3-0.3,3.2-0.6c1.8-0.7,2.8-0.1,3.3,1.8c0.4,1.6,1.7,3.3,1.3,4.6
			c-0.3,1.2-2.4,1.8-3.7,2.7C982.4,932.3,982.3,932.5,981.8,933z M965.5,913.3c-4.2-1.6-4.2-1.6-3.6-5.3c0.2-1.1,0.1-1.8-1.2-2.2
			c-1.2-0.3-1.9-0.1-2.3,1.1c-0.3,0.8-0.6,1.6-1.1,2.3c-0.2,0.4-0.7,0.7-1.2,0.8c-3.1,0.1-3.7-0.3-4.2-3.4c-0.1-0.3-0.1-0.6-0.2-1
			c-0.1-1.2-0.9-1.2-1.8-1.2c-1,0-1.6,0.2-1.7,1.4c0,0.9-0.1,1.8-0.3,2.7c-0.1,0.4-0.4,1-0.8,1.2c-2.6,1.2-3.8,0.7-5.1-1.8
			c-0.1-0.3-0.2-0.7-0.5-0.8c-0.6-0.3-1.2-0.7-1.8-0.7c-0.9,0.1-1.8,0.5-1.5,1.8c0.2,0.8,0.5,1.7,0.6,2.5c0.1,0.5,0,1.2-0.3,1.6
			c-1.9,1.9-3.5,1.9-5.4,0c-0.3-0.3-0.5-0.7-0.8-0.8c-0.6-0.2-1.3-0.4-1.8-0.2c-1.3,0.6-1.6,1.5-0.7,2.8c0.6,0.9,1.5,2.2,1.2,3.1
			c-0.5,2.2-2.9,3-5,1.9c-2.6-1.4-2.9-1.3-3.9,1.6c0.9,0.8,1.8,1.6,2.7,2.5c0.3,0.3,0.6,0.8,0.6,1.1c-0.1,2.3-2,3.7-4.3,3.4
			c-2.8-0.5-2.9-0.4-3.3,2.7c1.1,0.5,2.2,1,3.3,1.6c0.4,0.2,0.9,0.6,1,1c0.5,2.4-0.6,4.1-3.1,4.4c-0.4,0.1-0.9,0-1.2,0.2
			c-0.5,0.4-1.1,0.8-1.2,1.4c-0.5,1.7,0.5,2.1,2,2.2c3.1,0.3,3,0.3,3.6,3.1c0.5,2.4-1.4,2.4-2.6,3.2c-1.6,0.9-2,2-0.7,3.2
			c0.5,0.5,1.8,0.2,2.6,0.1c1.5-0.2,2.7-0.6,3.5,1.3c0.7,1.6,1.2,2.9-0.5,4c-0.3,0.2-0.5,0.5-0.7,0.7c-1.2,1.2-1.2,2.3,0.3,3.1
			c0.5,0.3,1.4-0.1,2.1-0.3c1.1-0.3,2.3-1.3,3.2-1.1c2.3,0.7,2.9,2.8,1.8,5c-0.1,0.2-0.2,0.5-0.4,0.7c-0.6,1-0.7,1.7,0.4,2.5
			c1.2,0.8,1.8,0.6,2.6-0.4c0.7-0.9,1.5-1.6,2.2-2.4c4.1,1.6,4.2,1.6,3.6,5.5c-0.2,1.1,0.2,1.6,1.3,2c1.7,0.6,2-0.5,2.5-1.6
			c0.6-1.5,1-2.9,3.4-2.4c1.9,0.4,2.7,0.9,2.7,2.9c0,1.1-0.2,2.6,1.8,2.6c1.4,0,1.8-0.4,2-1.8c0.1-1.1,0.2-2.6,0.9-3.3
			c1.6-1.5,4.2-0.7,5.2,1.3c1.3,2.6,1.3,2.6,4,0.9c-0.2-1.2-0.5-2.4-0.6-3.6c-0.1-0.5,0-1.1,0.3-1.4c1.8-1.9,3.5-1.9,5.4,0
			c0.1,0.1,0.3,0.3,0.4,0.4c0.8,0.9,1.5,1.3,2.6,0.4c1.2-0.9,0.9-1.6,0.3-2.7c-1.7-2.9-1.6-2.9,0.7-5.3c0.3-0.3,0.6-0.5,0.9-0.8
			c0.8,0.4,1.5,0.8,2.2,1.1c2.6,1.3,2.6,1.3,3.9-1.5c-0.9-0.8-1.8-1.6-2.7-2.5c-0.3-0.3-0.7-0.9-0.7-1.3c0.2-2.5,1.9-3.7,4.3-3.3
			c2.8,0.5,2.8,0.4,3.2-2.7c-1.1-0.5-2.2-1-3.3-1.6c-0.4-0.2-0.9-0.5-1-0.8c-0.7-2.1,0.7-4.3,2.9-4.6c0.5-0.1,1,0.1,1.4-0.2
			c0.5-0.3,1.1-0.8,1.2-1.4c0.3-1.5-0.4-2.2-2-2.3c-1.1-0.1-2.7-0.3-3.1-1c-1.5-2.4-0.9-3.8,1.6-5c0.3-0.1,0.7-0.2,0.9-0.5
			c0.4-0.6,0.8-1.2,0.8-1.8c0-1.4-0.9-1.8-2.3-1.5c-1.1,0.3-2.5,0.7-3.4,0.2c-1.9-1.1-2-3.7-0.4-5.3c0.3-0.3,0.5-0.6,0.8-0.8
			c0.9-0.7,0.9-1.5,0.1-2.3c-0.6-0.8-1.2-1.4-2.3-0.6c-0.5,0.4-1.1,0.5-1.5,0.9c-1.2,1-2.1,0.5-3.2-0.4c-1.6-1.3-1.9-2.5-0.7-4.1
			c0.2-0.3,0.3-0.7,0.6-1c0.6-0.9,0.3-1.5-0.6-2.1c-0.8-0.5-1.5-1-2.3,0C967.1,911.5,966.3,912.4,965.5,913.3z"/>
		<path class="st0" d="M975.8,905.8c-2.5-0.9-3.3-2-3.5-3.9c-2.3-17.7-17-29.9-34.9-29.1c-1.9,0.1-3.7,0.6-5.5,1
			c-10.2-19.3-25.8-28.5-46.8-22c-21.8,6.7-29.4,23.5-26.7,45.7c-1.4,0-2.9,0-4.4,0.1c-16.6,1-28.6,15.4-26.7,32
			c1.9,15.8,17.2,27.1,33.2,24.3c15.7-2.8,31.3-5.7,47-8.6c0.8-0.2,1.7-0.3,2.7-0.5c0.2,0.9,0.4,1.6,0.6,2.6
			c-0.8,0.2-1.5,0.3-2.2,0.4c-15.9,2.9-31.7,5.8-47.6,8.7c-16,2.9-31.4-6.9-35.5-22.7c-4.7-17.7,6.8-35.5,24.8-38.6
			c1.6-0.3,3.2-0.4,5-0.6c-0.1-2-0.3-3.9-0.3-5.8c-0.3-18.8,12.4-35.6,30.3-40.2c18.7-4.8,37.6,3.3,46.6,20.1
			c0.8,1.5,1.6,1.9,3.4,1.7c18-2.5,35.8,10.4,39.1,28.2C974.9,900.8,975.3,903.1,975.8,905.8z"/>
		<path class="st0" d="M872.6,925c-6.6,1.2-13.2,2.4-19.8,3.6c-0.6,0.1-1.2,0.3-1.7,0.2c-0.5-0.2-1.1-0.8-1.2-1.3
			c-0.1-0.3,0.5-1,0.9-1.3c0.5-0.3,1.1-0.3,1.7-0.4c13.1-2.4,26.1-4.8,39.2-7.2c0.3,0,0.5-0.2,0.8-0.1c0.8,0.2,1.5,0.6,2.3,0.9
			c-0.6,0.6-1.1,1.7-1.8,1.8c-5.5,1.1-11.1,2.1-16.7,3.1C875,924.6,873.8,924.8,872.6,925z"/>
		<path class="st0" d="M890.9,902c-4.1,0.8-8.3,1.5-12.4,2.3c-1.1,0.2-2.4,0.7-2.7-1c-0.3-1.5,1.1-1.6,2.1-1.8
			c8.5-1.6,16.9-3.1,25.4-4.6c0.2,0,0.4-0.1,0.6-0.1c0.7,0.3,1.4,0.6,2.1,1c-0.5,0.6-1,1.6-1.6,1.7
			C899.8,900.4,895.4,901.2,890.9,902z"/>
		<path class="st0" d="M975.4,934c2.5,13.7-6.4,26.7-20.1,29.2c-13.5,2.5-26.8-6.6-29.3-20.2c-2.5-13.7,6.6-27,20.3-29.4
			C960,911.3,972.9,920.3,975.4,934z M928.7,942.5c2.2,12.2,14,20.3,26.1,18.1c12-2.2,20.2-14,18.1-26
			c-2.1-12.1-14.1-20.4-26.1-18.2C934.7,918.5,926.5,930.5,928.7,942.5z"/>
	</g>
	<g>
		<path class="st0" d="M773.5,879.5c-9.7-1.9-19.3-3.8-29.1-5.5c-3.7-0.6-4.7-2-3.9-5.7c3-14.7,5.8-29.5,8.5-44.4
			c0.7-3.8,2.1-4.6,5.8-3.9c19.5,3.9,39.1,7.6,58.6,11.2c3.4,0.6,4.4,1.9,3.7,5.4c-3,14.9-5.9,29.9-8.6,44.9
			c-0.6,3.5-2.1,4.3-5.4,3.6C793.3,883.1,783.4,881.4,773.5,879.5z M814.8,834.6c-21.4-4.1-41.9-8-62.5-12
			c-3.1,16.3-6.1,32.1-9.2,48c20.9,4,41.5,7.9,62.5,12c2.8-14.4,5.4-28.4,8.1-42.5C814.1,838.4,814.4,836.7,814.8,834.6z"/>
		<path class="st0" d="M792.4,851.2c-4.3,3.2-8.2,6.1-12.3,9.2c1.4,2.7,2.8,5.3,4.2,7.8c-0.5,0.4-1,0.8-1.6,1.1
			c-3.4-4.9-6.9-9.7-10.5-14.8c-7.7,4.5-15.2,8.9-23.4,13.7c1.2-4,13.3-12,24.3-16.8c1.6,2.1,3.4,4.3,5.3,6.8
			c4.7-3.5,9.3-6.9,14.6-10.8c4.4,5.9,8.6,11.6,12.7,17.2c-0.6,0.5-1.2,0.9-1.9,1.4C800.2,861.2,796.5,856.4,792.4,851.2z"/>
		<path class="st1" d="M761.8,847.1c-3.8-0.7-6.3-4.4-5.6-8.2c0.7-3.8,4.4-6.3,8.2-5.6c3.8,0.7,6.3,4.4,5.6,8.2
			C769.3,845.3,765.7,847.8,761.8,847.1z M764.1,835.5c-2.6-0.5-5.1,1.2-5.6,3.8c-0.5,2.6,1.2,5.1,3.8,5.6c2.6,0.5,5.1-1.2,5.6-3.8
			C768.3,838.5,766.6,836,764.1,835.5z"/>
	</g>
	<path class="st0" d="M150.1,882.7c1.6,5.3-1.4,10.8-6.7,12.4c-5.3,1.5-10.7-1.5-12.3-6.8c-1.6-5.4,1.3-10.8,6.7-12.3
		C143.1,874.3,148.5,877.3,150.1,882.7z M146.1,883.9c-0.8-3-4.1-4.8-7.1-3.9c-2.9,0.9-4.7,3.9-4,6.9c0.7,3,4,4.9,7.1,4.1
		C145.1,890.1,146.9,887,146.1,883.9z"/>
	<path class="st0" d="M101.5,864.3c5.4-1.6,10.8-3.3,16.2-4.7c1.1-0.3,3.2,0.2,3.6,0.9c0.9,1.9-1,2.4-2.4,2.8c-11,3.3-22,6.6-33,9.7
		c-1.1,0.3-3.3-0.2-3.6-0.9c-0.8-2.1,1.2-2.4,2.7-2.9C90.5,867.6,96,865.9,101.5,864.3z"/>
	<g>
		<path class="st0" d="M301.6,813.5c1.7-0.1,3-0.3,4.2-0.2c0.6,0,1.2,0.6,1.6,1.1c0.3,0.3,0.3,0.9,0.4,1.3c0.3,1.5,1.2,3.3,0.7,4.6
			c-0.4,1.1-2.5,1.4-3.8,2.1c-0.2,0.1-0.4,0.3-1,0.7c2,0.5,3.5,0.9,5.5,1.5c-0.2,2.3-0.4,4.6-0.7,6.9c-0.1,0.4-0.9,0.8-1.4,0.9
			c-1.3,0.2-2.6,0.2-4,0.7c1.1,0.7,2.1,1.4,3.2,2c0.9,0.5,1.1,1.1,0.7,2.1c-0.8,2-1.4,4.1-2.1,6.1c-2.3-0.6-4-1.1-5.6-1.5
			c-0.1,0.1-0.2,0.3-0.3,0.4c0.8,1,1.6,2,2.5,2.9c0.7,0.7,0.8,1.4,0.1,2.2c-1.2,1.3-2.3,2.5-3.4,3.9c-0.7,0.9-1.4,0.9-2.3,0.2
			c-1-0.7-2-1.3-3.1-1.9c-0.1,0.1-0.3,0.2-0.4,0.3c0.5,1.2,1.1,2.3,1.4,3.6c0.1,0.6-0.1,1.5-0.6,1.9c-1.2,1-2.7,1.7-4,2.5
			c-1.3,0.8-2.1,0.5-2.9-0.7c-0.5-0.9-1.3-1.6-2.5-2.3c0.1,1.2,0.1,2.3,0.3,3.5c0.2,1.2-0.2,1.9-1.4,2.1c-0.4,0.1-0.9,0.3-1.3,0.4
			c-4.5,1.1-4.5,1.1-6.4-3.1c-0.1-0.3-0.3-0.5-0.8-1.1c-0.4,1.5-0.8,2.6-0.9,3.7c-0.2,1.5-0.9,1.9-2.3,1.7c-0.1,0-0.3,0-0.4,0
			c-1.7-0.2-3.9,0.2-4.9-0.8c-1-0.8-0.7-3-1-4.6c0-0.2-0.2-0.3-0.4-0.7c-1,1.6-1.9,3-3,4.7c-2.4-1-4.7-2.1-7.2-3.2
			c0.5-1.8,0.9-3.4,1.4-5.1c-0.1-0.1-0.2-0.2-0.4-0.3c-1,0.8-2,1.8-3.1,2.5c-0.5,0.3-1.3,0.2-2,0.1c-0.4-0.1-0.8-0.5-1.1-0.8
			c-1.2-1.1-2.9-2-3.2-3.3c-0.3-1.1,1.1-2.7,1.8-4c0.1-0.2,0.2-0.5,0.4-1.1c-1.5,0.6-2.6,1.2-3.8,1.5c-0.6,0.1-1.6,0-1.9-0.4
			c-1-1.4-1.8-2.9-2.7-4.4c-0.7-1.1-0.4-1.9,0.6-2.6c0.9-0.6,1.7-1.4,2.4-2.5c-1.1,0.1-2.3,0-3.4,0.2c-1.3,0.2-2-0.2-2.2-1.5
			c-0.1-0.4-0.3-0.9-0.4-1.3c-1.1-4.3-1.1-4.3,2.9-6.2c0.3-0.2,0.6-0.4,1.3-0.9c-1.6-0.4-2.7-0.7-3.9-1c-1-0.2-1.5-0.6-1.4-1.7
			c0.1-1.2,0.1-2.5,0.3-3.7c0.1-0.9,0.3-1.8,0.5-2.8c1.8-0.1,3.4-0.2,5.1-0.3c0.1-0.1,0.1-0.3,0.2-0.4c-1.4-0.9-2.9-1.8-4.6-2.9
			c1-2.4,2-4.8,3.1-7.2c2,0.5,3.6,0.9,5.2,1.3c0.1-0.1,0.2-0.2,0.3-0.4c-0.8-1-1.6-2-2.5-2.9c-0.8-0.8-0.8-1.4-0.1-2.2
			c1.1-1.3,2.3-2.5,3.4-3.9c0.7-0.9,1.4-0.9,2.3-0.2c1,0.7,2,1.3,3.4,1.7c-0.5-1.2-1.1-2.3-1.3-3.5c-0.1-0.6,0.3-1.4,0.6-2.1
			c0.1-0.2,0.4-0.3,0.6-0.4c1.5-0.8,3-2.3,4.5-2.3c1.2,0,2.3,1.9,3.4,3c0.2,0.2,0.4,0.3,0.9,0.6c-0.1-1.6-0.4-2.9-0.3-4.2
			c0-0.6,0.6-1.2,1.1-1.7c0.4-0.3,1-0.3,1.5-0.4c4.6-1.1,4.6-1.1,6.6,3.2c0.1,0.2,0.3,0.4,0.7,1c0.4-1.6,0.8-2.8,1-4.1
			c0.2-1.1,0.7-1.5,1.7-1.3c0.5,0.1,0.9,0,1.4,0.1c1.6,0.2,3.6-0.1,4.6,0.8c0.9,0.8,0.6,2.8,0.8,4.3c0,0.2,0.2,0.5,0.4,1.1
			c0.7-1.2,1.4-2,1.9-3c0.7-1.5,1.6-1.7,3-1c0.1,0.1,0.2,0.1,0.4,0.1c1.5,0.7,3.6,1,4.3,2.2c0.6,1-0.2,3-0.5,4.5c0,0.2,0,0.4,0,1
			c1.1-0.9,2-1.5,2.8-2.3c1-1.1,1.9-1.1,2.9,0c0.2,0.2,0.4,0.3,0.6,0.5c1.2,1.1,3,2,3.3,3.3c0.3,1.1-1.2,2.7-1.8,4
			c-0.1,0.2-0.2,0.5-0.5,1.3c1.3-0.5,2.2-0.7,3-1.2c1.7-1,2.7-0.6,3.6,1.1c0.7,1.5,2.3,2.9,2.2,4.3c-0.1,1.2-2,2.3-3.1,3.4
			C302.1,812.7,302,812.9,301.6,813.5z M281.7,797.4c-4.4-0.7-4.5-0.7-4.6-4.4c0-1.2-0.3-1.8-1.6-1.9c-1.2-0.1-1.8,0.3-2,1.5
			c-0.1,0.8-0.3,1.7-0.6,2.5c-0.1,0.4-0.6,0.9-1,1c-3,0.8-3.7,0.4-4.8-2.5c-0.1-0.3-0.3-0.6-0.4-0.9c-0.3-1.2-1.1-1-2-0.8
			c-1,0.2-1.6,0.5-1.4,1.7c0.1,0.9,0.3,1.8,0.2,2.7c0,0.4-0.2,1.1-0.6,1.3c-2.3,1.7-3.6,1.5-5.3-0.8c-0.2-0.3-0.4-0.7-0.6-0.7
			c-0.6-0.2-1.4-0.5-1.9-0.3c-0.9,0.2-1.7,0.8-1.1,2c0.4,0.8,0.8,1.5,1,2.3c0.2,0.5,0.2,1.2,0,1.6c-1.5,2.2-3.1,2.5-5.3,1.1
			c-0.3-0.2-0.6-0.6-1-0.6c-0.6-0.1-1.4-0.1-1.8,0.2c-1.2,0.8-1.3,1.7-0.2,2.9c0.8,0.8,1.9,1.9,1.8,2.8c-0.1,2.3-2.3,3.5-4.5,2.9
			c-2.8-0.8-3.1-0.7-3.5,2.3c1,0.6,2.1,1.2,3.2,1.9c0.3,0.2,0.8,0.6,0.8,1c0.3,2.3-1.2,4.1-3.5,4.2c-2.9,0.1-2.9,0.2-2.7,3.3
			c1.2,0.3,2.4,0.5,3.6,0.9c0.4,0.1,1,0.4,1.2,0.8c1,2.3,0.2,4.1-2.1,5c-0.4,0.1-0.9,0.2-1.1,0.4c-0.4,0.5-0.9,1-0.9,1.6
			c-0.1,1.7,0.9,2,2.4,1.8c3.1-0.4,3-0.3,4.2,2.3c1,2.3-0.9,2.7-2,3.6c-1.4,1.2-1.5,2.3,0,3.3c0.6,0.4,1.8-0.1,2.6-0.4
			c1.4-0.5,2.5-1.1,3.7,0.6c1,1.4,1.8,2.6,0.3,4c-0.2,0.2-0.4,0.5-0.6,0.8c-0.9,1.4-0.7,2.5,0.9,3c0.5,0.2,1.3-0.4,2-0.7
			c1-0.5,2-1.8,2.9-1.7c2.4,0.2,3.4,2.2,2.8,4.6c-0.1,0.3-0.1,0.5-0.2,0.8c-0.4,1.1-0.3,1.8,0.9,2.3c1.3,0.6,1.9,0.2,2.5-0.9
			c0.5-1,1.1-1.9,1.7-2.8c4.4,0.7,4.4,0.7,4.6,4.7c0.1,1.2,0.5,1.5,1.6,1.7c1.8,0.3,1.9-0.9,2.1-2.1c0.3-1.6,0.4-3.1,2.8-3.1
			c1.9,0,2.9,0.3,3.3,2.3c0.2,1,0.3,2.6,2.3,2.2c1.3-0.3,1.7-0.8,1.6-2.1c-0.1-1.1-0.4-2.6,0.2-3.4c1.3-1.8,3.9-1.5,5.4,0.3
			c1.8,2.3,1.8,2.3,4.1,0.1c-0.4-1.1-0.9-2.2-1.3-3.4c-0.1-0.4-0.2-1.1,0-1.4c1.4-2.2,3.1-2.6,5.2-1.1c0.2,0.1,0.3,0.2,0.5,0.3
			c0.9,0.8,1.7,1,2.6-0.1c1-1.1,0.5-1.8-0.2-2.7c-2.2-2.5-2.2-2.6-0.3-5.4c0.2-0.3,0.4-0.6,0.7-1c0.9,0.2,1.6,0.4,2.4,0.7
			c2.8,0.8,2.8,0.8,3.6-2.3c-1-0.6-2.1-1.2-3.1-1.9c-0.4-0.3-0.9-0.7-0.9-1.1c-0.3-2.5,1.1-4,3.5-4.1c2.8-0.1,2.9-0.1,2.6-3.3
			c-1.2-0.3-2.4-0.6-3.6-0.9c-0.4-0.1-0.9-0.3-1.1-0.6c-1.1-1.9-0.2-4.4,1.9-5.1c0.4-0.2,1-0.1,1.3-0.4c0.4-0.4,0.9-1,0.9-1.6
			c0-1.5-0.9-2.1-2.4-1.9c-1.1,0.1-2.7,0.2-3.2-0.4c-1.9-2.1-1.6-3.5,0.6-5.2c0.3-0.2,0.7-0.4,0.8-0.6c0.2-0.6,0.6-1.4,0.4-1.9
			c-0.3-1.4-1.3-1.6-2.6-1c-1,0.5-2.3,1.2-3.2,0.9c-2.1-0.7-2.7-3.3-1.4-5.1c0.2-0.3,0.4-0.7,0.7-1c0.8-0.9,0.6-1.6-0.3-2.3
			c-0.8-0.6-1.5-1.1-2.3-0.1c-0.4,0.4-0.9,0.7-1.3,1.2c-1,1.2-2,0.9-3.2,0.3c-1.8-1-2.3-2.1-1.5-3.9c0.2-0.3,0.2-0.8,0.3-1.1
			c0.4-1,0-1.6-1-1.9c-0.9-0.3-1.7-0.7-2.3,0.5C283,795.4,282.3,796.4,281.7,797.4z"/>
		<path class="st0" d="M290.3,788c-2.6-0.4-3.6-1.3-4.2-3.1c-5.8-16.9-22.5-25.9-39.9-21.6c-1.8,0.5-3.5,1.4-5.2,2
			c-13.8-16.8-30.9-22.8-50.3-12.3c-20,10.9-24.2,28.9-17.1,50.1c-1.4,0.3-2.9,0.5-4.3,0.9c-16.1,4.3-25,20.8-19.8,36.6
			c5,15.1,22.2,23.2,37.4,17.2c14.8-5.8,29.6-11.8,44.4-17.7c0.8-0.3,1.6-0.6,2.5-1c0.4,0.8,0.7,1.5,1.1,2.4
			c-0.8,0.3-1.4,0.6-2.1,0.8c-15,6-29.9,12-44.9,17.9c-15.1,6-32.1-0.6-39.3-15.2c-8.1-16.4-0.4-36.2,16.7-42.8
			c1.5-0.6,3.1-1,4.8-1.6c-0.5-2-1-3.8-1.4-5.6c-4-18.3,5.1-37.4,21.7-45.4c17.4-8.4,37.5-4.2,49.7,10.4c1.1,1.3,2,1.6,3.6,1
			c17.2-6,37.1,3,43.9,19.9C288.4,783.3,289.3,785.4,290.3,788z"/>
		<path class="st0" d="M192.9,827.3c-6.2,2.5-12.4,5-18.7,7.5c-0.5,0.2-1.2,0.6-1.7,0.5c-0.5-0.1-1.2-0.6-1.4-1
			c-0.1-0.3,0.3-1.1,0.6-1.4c0.4-0.4,1-0.5,1.6-0.7c12.3-4.9,24.6-9.9,37-14.8c0.2-0.1,0.5-0.3,0.7-0.3c0.8,0.1,1.6,0.3,2.4,0.4
			c-0.5,0.7-0.7,1.9-1.4,2.2c-5.2,2.2-10.5,4.3-15.7,6.4C195.3,826.4,194.1,826.9,192.9,827.3z"/>
		<path class="st0" d="M206.4,801.1c-3.9,1.6-7.8,3.1-11.7,4.7c-1,0.4-2.2,1.1-2.8-0.4c-0.6-1.5,0.7-1.8,1.7-2.1
			c8-3.2,16-6.4,24-9.6c0.2-0.1,0.4-0.2,0.5-0.2c0.7,0.2,1.5,0.4,2.2,0.6c-0.4,0.7-0.7,1.8-1.3,2
			C214.8,797.8,210.6,799.5,206.4,801.1z"/>
		<path class="st0" d="M295.5,815.8c5.2,12.9-1,27.4-13.9,32.6c-12.8,5.2-27.5-1.2-32.7-14c-5.2-13,1.2-27.8,14-32.8
			C276,796.6,290.4,802.9,295.5,815.8z M251.4,833.4c4.6,11.5,17.7,17.1,29.2,12.5c11.3-4.5,17-17.7,12.6-29.1
			c-4.5-11.4-17.8-17.2-29.2-12.7C252.6,808.7,246.8,822,251.4,833.4z"/>
	</g>
	<g>
		<path class="st0" d="M86.5,814.3c-9.8,1-19.6,1.8-29.4,3c-3.7,0.4-5-0.6-5.4-4.4c-1.3-15-2.8-30-4.5-44.9c-0.4-3.8,0.8-5,4.4-5.3
			c19.8-1.8,39.6-3.8,59.4-5.9c3.5-0.4,4.7,0.6,5.1,4.1c1.4,15.2,2.9,30.3,4.6,45.5c0.4,3.6-0.7,4.7-4.2,5
			C106.5,812.2,96.5,813.3,86.5,814.3z M113.4,759.5c-21.7,2.2-42.4,4.3-63.3,6.3c1.7,16.5,3.3,32.6,4.9,48.6
			c21.2-2.1,42-4.2,63.3-6.3c-1.5-14.6-2.9-28.8-4.3-43C113.8,763.4,113.6,761.6,113.4,759.5z"/>
		<path class="st0" d="M96.6,781.8c-3.2,4.3-6.1,8.2-9.1,12.3c2.2,2.2,4.2,4.2,6.2,6.3c-0.4,0.5-0.8,1-1.2,1.5
			c-4.7-3.7-9.3-7.3-14.2-11.2c-6.1,6.6-12.1,12.9-18.5,19.8c0-4.2,9.3-15.3,18.5-23c2.2,1.5,4.4,3.2,7,5c3.5-4.7,7-9.3,10.9-14.5
			c5.9,4.4,11.5,8.6,17.1,12.8c-0.5,0.6-0.9,1.2-1.4,1.9C106.9,789.2,102,785.7,96.6,781.8z"/>
		<path class="st1" d="M66.1,786.6c-3.9,0.4-7.3-2.4-7.7-6.3c-0.4-3.9,2.4-7.3,6.3-7.7c3.9-0.4,7.3,2.4,7.7,6.3
			C72.8,782.7,70,786.2,66.1,786.6z M65,774.8c-2.6,0.3-4.5,2.6-4.3,5.2c0.3,2.6,2.6,4.5,5.2,4.3c2.6-0.3,4.5-2.6,4.3-5.2
			C69.9,776.5,67.6,774.6,65,774.8z"/>
	</g>
	<g>
		<path class="st0" d="M638.6,707.2c-9,4-18.1,7.8-27,12c-3.4,1.6-5,1-6.5-2.5c-5.9-13.8-12-27.6-18.2-41.3c-1.6-3.5-0.8-5,2.5-6.4
			c18.3-7.9,36.5-16,54.6-24.1c3.2-1.4,4.7-0.9,6.1,2.3c6,14,12.2,27.9,18.5,41.8c1.5,3.3,0.8,4.7-2.4,6.1
			C657,699,647.8,703.1,638.6,707.2z M647.1,646.8c-19.9,8.8-39,17.2-58.2,25.7c6.7,15.1,13.2,29.9,19.7,44.7
			c19.5-8.6,38.6-17,58.2-25.7c-5.9-13.4-11.7-26.5-17.5-39.6C648.7,650.3,648,648.7,647.1,646.8z"/>
		<path class="st0" d="M638,673.2c-1.7,5.1-3.2,9.7-4.9,14.5c2.7,1.4,5.3,2.7,7.9,4.1c-0.2,0.6-0.4,1.2-0.6,1.8
			c-5.6-2-11.2-4.1-17-6.2c-3.8,8.1-7.5,16-11.4,24.6c-1.3-4,4.1-17.4,10.5-27.6c2.5,0.8,5.2,1.6,8.2,2.6c1.9-5.6,3.7-11,5.9-17.2
			c7,2.4,13.6,4.6,20.2,6.9c-0.2,0.7-0.5,1.5-0.7,2.2C650.2,677,644.4,675.2,638,673.2z"/>
		<path class="st1" d="M610.6,687.2c-3.5,1.6-7.7,0-9.3-3.6c-1.6-3.5,0-7.7,3.6-9.3c3.5-1.6,7.7,0,9.3,3.6
			C615.8,681.5,614.2,685.6,610.6,687.2z M605.8,676.4c-2.4,1.1-3.5,3.9-2.4,6.3c1.1,2.4,3.9,3.5,6.3,2.4c2.4-1.1,3.5-3.9,2.4-6.3
			C611.1,676.4,608.2,675.3,605.8,676.4z"/>
	</g>
	<path class="st0" d="M934.5,1144.8c0.3-6.5,5.8-11.7,12.2-11.4c6.5,0.3,11.6,5.8,11.4,12.2c-0.3,6.5-5.8,11.6-12.2,11.4
		C939.5,1156.7,934.3,1151.2,934.5,1144.8z M938.8,1145c-0.1,4.1,3.2,7.7,7.3,7.8c4,0.1,7.7-3.3,7.8-7.4c0.1-4.1-3.3-7.6-7.4-7.8
		C942.4,1137.5,938.9,1140.9,938.8,1145z"/>
	<g>
		<path class="st0" d="M784.1,1166c1-4.9,1.6-9.7,3-14.2c6.6-21.4,26.5-36.4,48.5-36.6c23.9-0.3,43.9,13.5,51.2,35.4
			c0.9,2.6,2.1,3.5,4.8,3.7c23.2,1.4,43.2,21.8,42.2,47.8c-1,23.6-20.8,43.3-44.7,43.4c-37.5,0.1-74.9,0.1-112.4,0
			c-20.9-0.1-38.6-17.3-39-37.8c-0.5-22.3,15.5-40.3,37.1-41.6C777.9,1165.8,781,1166,784.1,1166z M788.2,1170.5
			c-3.2-0.4-6.1-1-9-1.2c-20.2-1-37.6,15.1-38,34.9c-0.4,21.1,15.6,37.9,36.3,37.9c36.8,0,73.7,0,110.5,0c1.9,0,3.8-0.2,5.6-0.4
			c22.1-3,38.2-22.6,36.7-44.7c-1.4-21.9-19.9-39.4-42-39.5c-2.4,0-3.3-0.8-4-3.1c-6.1-19.5-19.2-31.9-39.4-35.1
			c-20.7-3.3-37.3,4.6-49.1,22C790,1149.8,787.8,1159.6,788.2,1170.5z"/>
		<path class="st0" d="M834,1215.8c15.5,0,31,0,46.5,0c0.9,0,2-0.2,2.8,0.1c0.7,0.3,1.8,1.2,1.7,1.8c-0.1,0.8-0.9,1.7-1.7,2.2
			c-0.6,0.4-1.6,0.2-2.5,0.2c-31.2,0-62.4,0-93.5,0c-0.6,0-1.4,0.2-1.9-0.1c-0.9-0.6-1.7-1.5-2.5-2.2c0.8-0.7,1.5-1.5,2.4-1.9
			c0.7-0.3,1.6-0.1,2.5-0.1C803.2,1215.8,818.6,1215.8,834,1215.8z"/>
		<path class="st0" d="M834,1196.1c-9.5,0-19,0-28.6,0c-0.9,0-2,0.1-2.8-0.3c-0.7-0.4-1.3-1.3-1.4-2.1c0-0.5,0.9-1.4,1.5-1.7
			c0.7-0.3,1.6-0.1,2.5-0.1c19.2,0,38.3,0,57.5,0c0.8,0,1.8-0.2,2.5,0.1c0.7,0.3,1.5,1.1,1.5,1.7c0,0.8-0.7,1.8-1.4,2.1
			c-0.8,0.4-1.8,0.2-2.8,0.2C853.1,1196.1,843.5,1196.1,834,1196.1z"/>
	</g>
	<g>
		<path class="st0" d="M914.2,1106.3c-9.7,1.8-19.4,3.4-29.1,5.4c-3.6,0.7-5.1-0.2-5.7-3.9c-2.5-14.8-5.3-29.6-8.2-44.4
			c-0.7-3.7,0.3-5,4-5.7c19.6-3.5,39.2-7.1,58.7-10.8c3.4-0.7,4.8,0.2,5.4,3.7c2.6,15,5.4,30,8.3,44.9c0.7,3.5-0.3,4.8-3.7,5.4
			C934,1102.6,924.1,1104.5,914.2,1106.3z M936.5,1049.6c-21.4,3.9-41.9,7.7-62.5,11.5c3,16.3,5.9,32.2,8.9,48
			c21-3.9,41.5-7.6,62.5-11.5c-2.7-14.4-5.2-28.5-7.8-42.5C937.2,1053.3,936.9,1051.6,936.5,1049.6z"/>
		<path class="st0" d="M921.5,1073.1c-2.8,4.6-5.4,8.7-8.1,13c2.3,2,4.5,3.9,6.7,5.8c-0.3,0.5-0.7,1.1-1,1.6c-5-3.3-9.9-6.6-15.1-10
			c-5.6,7-11,13.9-16.8,21.3c-0.3-4.2,8-16,16.6-24.4c2.3,1.4,4.7,2.8,7.4,4.4c3.1-5,6.2-9.8,9.7-15.4c6.3,3.9,12.2,7.7,18.1,11.4
			c-0.4,0.7-0.8,1.3-1.2,2C932.5,1079.6,927.2,1076.5,921.5,1073.1z"/>
		<path class="st1" d="M891.6,1080.4c-3.8,0.7-7.5-1.8-8.2-5.6c-0.7-3.8,1.8-7.5,5.6-8.2c3.8-0.7,7.5,1.8,8.2,5.6
			C898,1076,895.4,1079.7,891.6,1080.4z M889.5,1068.8c-2.6,0.5-4.3,3-3.8,5.5c0.5,2.6,3,4.3,5.5,3.8c2.6-0.5,4.3-3,3.8-5.5
			C894.5,1070,892.1,1068.3,889.5,1068.8z"/>
	</g>
	<path class="st0" d="M105.2,260.6c2.4,3.4,4.3,5.8,5.9,8.5c0.5,0.9,0.1,2.3,0.1,3.5c-1.2-0.5-2.9-0.6-3.5-1.4
		c-1.8-2.5-3.1-5.4-5.3-9.2c-3.2,2.6-5.5,4.6-8,6.2c-1,0.6-3.4,0.8-4,0.2c-1.4-1.6,0.2-2.8,1.6-3.6c2.6-1.6,5.2-3.1,8.8-5.2
		c-2.4-3-4.5-5.4-6.1-8c-0.6-0.9-0.8-3.1-0.2-3.7c1.7-1.6,2.7,0.2,3.6,1.5c1.6,2.6,3.1,5.2,5.2,8.6c3.1-2.3,5.6-4.2,8.2-6
		c1.2-0.9,2.9-1.8,3.7,0.1c0.4,0.8-0.5,2.8-1.4,3.4C111.4,257.2,108.6,258.6,105.2,260.6z"/>
	<path class="st0" d="M648.3,1042.8c3,2.8,5.4,4.8,7.5,7.1c0.7,0.8,0.6,2.3,0.8,3.4c-1.3-0.2-2.9,0-3.7-0.7c-2.3-2.1-4.2-4.6-7-8
		c-2.7,3.2-4.4,5.6-6.6,7.7c-0.9,0.8-3.2,1.5-3.9,1c-1.7-1.3-0.3-2.8,0.9-3.9c2.2-2.1,4.5-4.1,7.6-6.9c-2.9-2.5-5.4-4.4-7.6-6.6
		c-0.8-0.8-1.4-2.9-0.9-3.6c1.3-1.9,2.7-0.4,3.8,0.8c2.1,2.2,4.1,4.4,6.8,7.4c2.5-2.8,4.7-5.2,6.9-7.6c1-1.1,2.4-2.3,3.6-0.6
		c0.5,0.7,0,2.8-0.7,3.6C653.7,1038.3,651.2,1040.3,648.3,1042.8z"/>
</g>
</svg>
